<svg width="933" height="1280" viewBox="0 0 933 1280" fill="none" xmlns="http://www.w3.org/2000/svg">
<path d="M527.8 16.8001C511.3 42.3001 500.1 82.9001 494.6 137.5C493.3 149.7 490 193.2 490 197.4C490 198 489.7 198 489.1 197.4C487.7 196.1 485.8 138.8 486.5 122.5C488.2 86.4001 494.1 57.0001 506.1 25.1001C508.2 19.3001 509.8 14.5001 509.6 14.3001C509.5 14.1001 507.7 16.4001 505.7 19.3001C492.1 39.9001 484.8 67.8001 482 110.5C481.5 118.7 481 147 481 173.2C481 233 480.3 235 475.8 187.5C472.8 155.7 472.5 93.4001 475.3 72.2001C478.3 48.5001 476.3 51.3001 471.6 77.1001C465 113.9 464.5 151.8 470 201.5C473 228 472.6 232.1 469.1 214C462.8 182.3 459.5 139.7 460.2 98.5001C460.6 73.4001 460.5 70.5001 459.4 77.0001C453.3 115.1 455.6 170.3 465.9 231.5C469.5 252.3 469.9 255.3 469 254.3C467.8 253 465.2 244.2 461.6 229C454.5 199.2 448.6 164.5 445.6 134.7C444.8 127.1 443.9 120.6 443.5 120.2C442.7 119.4 443.6 141.1 445.1 157C447.3 181.4 453.2 215.7 461.1 249.5C467.2 276.2 466.3 277.7 457.6 255.3C448.3 231.5 441.2 204.5 437.1 177C433.5 152.9 433 151.1 433.6 162.5C434.6 181.8 440.1 213.6 447.4 241.8C448.7 246.9 449.6 251.9 449.3 253C449 254 449.7 257.7 450.8 261.2C454.5 272.5 456.1 284 454.1 284C453.7 284 451.5 280.1 449.3 275.2C440.8 256.8 433.9 235.6 429 212.9C425.7 197.1 425.1 200.4 428.1 218.1C431.4 237.5 437.4 260.4 446.1 286.4C454.6 311.8 454.8 312.8 451.4 320.9C450.2 323.8 449.8 324.1 448.4 322.9C443.6 318.9 433.7 293.1 431 277.7C430 271.4 427.9 263.2 426.5 259.4C425 255.6 422.9 249.7 421.7 246.2C420.5 242.8 419 240 418.3 240C417.6 240 415.9 238.4 414.4 236.5C412.9 234.5 411.6 233.1 411.4 233.2C411.3 233.4 412.7 237.9 414.6 243.4C420.1 259.2 422.3 271.5 422.3 287C422.4 301.1 421.5 306.9 417.3 321C414.5 330.5 408.2 345 406.9 345C406.4 345 406 336.7 406 326.6C406 288.1 400.5 260.5 388.2 236.5C383.6 227.7 372.7 212 371 212C370.6 212 372.1 216.4 374.5 221.7C383 241.2 388.6 262 391.1 283.8C392.3 294.6 392 335.3 390.7 336.6C389.4 337.9 389 336.4 387.5 323.9C380.1 264.8 356 220.9 313.2 188.8C309 185.6 305.4 183.3 305.2 183.5C304.9 183.7 308.7 188.1 313.5 193.2C334.5 215.5 350.7 241.9 360.3 269.7C365 283 369 301.3 369.6 311.9C370.2 321.9 369.1 321.3 366.6 310.1C361.5 287.5 349.8 260.7 337.3 243C328.7 230.9 307.3 209.3 294.7 200C284.4 192.5 264.3 180 262.5 180C262 180 264 182.2 267 184.7C277 193.3 297.1 213.4 303.7 221.5C313.1 233.1 321.2 245.9 328 259.5C335 273.5 351.4 314 350.4 314.9C349.5 315.8 345.9 310.9 335.3 294.5C320.1 270.8 306.1 250.3 299.6 242.1C274.6 210.3 248 190.4 213.6 177.6C202.8 173.5 180.8 167.7 178.3 168.2C177.4 168.4 180.2 170 184.6 171.9C220.8 187.6 250.7 206.5 270 225.9C284.9 240.8 291.5 250.5 310.4 284.3C322.5 306 322.2 306 303.4 284.5C254.5 228.7 206.9 196.4 147.8 179.1C135.2 175.5 124.9 173.2 126 174.3C126.3 174.6 131.2 176.6 137 178.9C170.5 191.9 206.2 213.3 236.7 238.4C248.3 248 298.9 298 300.9 301.8C302.1 304.1 302.1 304.1 299.8 302.9C298.5 302.2 291.9 297.3 285 292C217.3 239.5 147.5 202.8 88.7 188.6C71.1 184.4 71 184.8 88.5 191.3C147.6 213.4 195.8 241.3 256.5 288.3C270.3 299 280.4 308 279.5 308.8C279.3 309 269.7 303.2 258.3 295.7C183.2 247.1 123.2 217.8 71.2 204.4C52 199.5 51.1 200.3 69 206.4C121.4 224.2 170.2 250.4 235.2 295.7C266.1 317.2 265.8 317.9 232.7 301.4C191.9 280.9 161.5 268.4 131 259.7C106.8 252.7 79.5 247 63 245.6C55.2 245 54.5 244.7 85.5 253.6C127.4 265.5 160.6 278.5 199 297.7C226.1 311.2 236.4 317 234.4 317.7C233.8 317.9 228 315.8 221.4 312.9C158.5 285.8 103.6 271.7 53 269.6L40.5 269.1L48 270.5C52.1 271.4 60.7 272.9 67 274C108.4 281.3 157.7 297.3 192 314.5C200.8 318.9 206.9 323 204.7 323C204.5 323 197.4 320.5 189 317.5C155.5 305.3 126.7 298 94.5 293.4C83.6 291.9 27.9 290.1 29.1 291.4C29.4 291.7 36.4 292.7 44.6 293.5C98.4 299.1 140 308.9 171.3 323.2C175 324.9 178 326.7 178 327.3C178 328.3 177.7 328.3 160.5 325C126.2 318.5 86.4 317.6 53.5 322.5C42.9 324.1 28.7 327 29.2 327.5C29.4 327.7 36 326.9 44 325.8C63.8 323 104.8 322.7 122.5 325.3C141.1 328.1 160 332.4 160 333.9C160 334.3 152.9 335 144.3 335.3C110.4 336.6 77.3 345.6 49.2 361.3C40 366.3 24 377.3 24 378.4C24 378.6 29.7 376.3 36.8 373.3C59.4 363.5 100.4 351.1 116 349.4C123.2 348.6 122 349.8 111.3 354.4C89.1 363.9 62.6 379.3 52 389C48.5 392.2 50.2 391.3 60 384.9C81.1 371.3 110.7 357.6 142.6 346.7C167 338.4 171.6 339.7 152 349.5C119.8 365.6 94.3 384.2 80.7 401.5C77.1 406.1 78.9 404.9 87.5 397.1C97 388.5 116.7 374.2 130.7 365.8C147.3 355.8 177.3 341 181.9 340.4C185.3 339.9 185.4 340 183.5 341.5C182.4 342.4 176.4 346.2 170.2 350C148.2 363.5 128.2 380.5 116.9 395.5C108.2 406.9 109.8 406.4 122.6 393.9C138.3 378.5 149.3 369.5 166 358.5C178.3 350.3 200.5 338 202.8 338C206.1 338 202.7 341.3 191.2 349.5C177.5 359.2 154 381.5 148 390.5C145.2 394.6 146.4 393.7 155.1 384.9C160.8 379.1 168 372.3 171 369.8C181 361.5 196.3 351.7 208.5 345.9C222.8 339.2 227.8 337.4 229.2 338.8C229.8 339.4 226.6 342.1 220.3 346.3C208.8 354 199.1 362.2 191.9 370.5C186.4 376.8 177.5 389.8 178.2 390.6C178.5 390.8 182 387.1 186.1 382.3C195.7 371.1 207.8 360.6 221.5 351.5C235.2 342.4 243.6 338.2 245.1 339.7C245.8 340.4 244.6 341.8 240.8 344.5C229 353 218.5 365 212.7 376.5C208.2 385.7 208.6 386.7 214.1 379.5C224.7 365.6 238.2 353.7 253.3 344.8C260 340.9 265.8 339.9 266.7 342.6C266.9 343.1 264.1 346 260.5 348.8C250.1 357.2 242 369.7 242 377.5C242 381.4 243.2 380.5 247 373.8C251.5 366 261.7 355.7 271.5 349.1C278.1 344.7 279.8 344 282.4 344.6C287.1 345.6 287.6 346.6 284.8 350.2C283.4 352 280.9 356.3 279.2 359.7C277.4 363.1 275.7 366.1 275.2 366.4C274.8 366.6 274.6 368.8 274.8 371.1L275.2 375.3L277 373L278.8 370.7L285.4 374.6C289.7 377.1 292.3 379.3 292.7 380.8C293.1 382.5 293.6 382.8 294.5 382C295.4 381.2 297.8 382.5 303.6 386.6C327.3 403.6 347.9 426.1 360.9 449.2C366.8 459.7 363.6 457.4 352.4 443.4C329 414 306.7 397 280.6 388.6C268.1 384.5 268.6 385.6 282.7 392.9C290 396.7 300.1 402.7 305.2 406.1C319.1 415.6 343.1 440 338.4 440C338.1 440 335.3 438 332.2 435.6C317 424 297.9 413.5 277.5 405.7C272.6 403.8 263.6 400.2 257.5 397.7C245.5 392.8 238.7 390.9 240.7 393C241.3 393.7 241.6 394.8 241.4 395.4C241.2 396 243.9 397.8 247.7 399.4C261.4 405.3 277.7 413.9 283.9 418.6C292.4 425 305.7 437.6 314.7 447.9C325.2 459.9 324.6 460.9 311.8 452.6C279.2 431.6 233.3 414.6 199.5 411C183.5 409.3 183.6 409.8 200.5 415.4C228 424.6 245.6 432.2 266.3 443.9C279.6 451.5 285.8 455.9 282.9 456C282.1 456 276.7 454.4 271 452.5C256.9 447.7 240.2 444.3 224.5 443C217.4 442.4 205.4 441.3 198 440.5C190.6 439.6 180.9 438.8 176.5 438.5L168.5 438L173.4 439.4C176.1 440.2 178.6 441.3 178.9 441.8C179.2 442.3 182.4 443.1 186 443.5C195 444.5 225.5 455.3 245.8 464.5C253.7 468.1 255.9 470 252.3 470C246.3 469.9 223.8 466.7 214.5 464.6C201.5 461.6 189.7 459.6 174.1 457.5C153.6 454.8 153.8 455.5 175 460.4C195.6 465.2 201.5 467 200.4 468C199.9 468.5 195 469.6 189.5 470.5C184 471.5 173.9 473.8 167 475.7C160.1 477.7 150.2 479.9 145 480.8C137.9 481.9 136.1 482.5 137.8 483.1C139 483.6 140 484.4 140 484.9C140 485.4 137 487.5 133.3 489.5C126 493.5 116.7 500 117.3 500.6C117.5 500.8 121.9 499.2 127.1 497C132.2 494.8 142.1 491.1 149 488.7L161.5 484.5L176 484.7C190.7 484.9 203 486.6 203.7 488.6C203.9 489.2 198.5 491 190.8 492.9C183.6 494.7 173.5 497.6 168.6 499.5C163.6 501.3 154.1 504.4 147.5 506.5C133.8 510.7 120.6 516.9 111.7 523.4C105.2 528 94.4 538.7 95.3 539.7C95.6 539.9 97.9 538.8 100.4 537.1C104.6 534.1 107 533.3 107 534.6C107 535 102.4 540.1 96.8 546C91.1 551.9 85.6 558.2 84.6 560.1L82.6 563.5L86.8 560.2C89.1 558.3 91.3 556.4 91.6 555.8C91.9 555.3 96.8 551.2 102.4 546.7C114.2 537.3 129.8 526.9 139.6 522.1C143.4 520.2 147.2 518.3 148 517.8C161.3 510.3 173.8 507.7 194 508.2C201.6 508.4 208.2 508.9 208.7 509.3C210 510.6 206.3 512.8 200.6 514C197.8 514.6 188.8 515.5 180.5 516C162.7 517.1 155.6 518 156.7 519.1C157.1 519.5 159.1 520 161 520.2C162.9 520.4 164.4 520.9 164.3 521.4C164.2 522 160.4 524 155.7 526C122.8 540.2 99.6 563.9 92.1 591C91 595 89.3 599.1 88.4 600.1C87.4 601.2 87.1 602 87.6 602C88 602 89.3 600.9 90.5 599.6C99.8 588.5 161.9 546.6 164.8 549.5C165.6 550.3 148.6 566.4 144.8 568.5C143.3 569.3 142.3 570.6 142.6 571.3C142.8 572 140.9 575.5 138.2 579.1C131.2 588.4 126.7 595.7 121 607.1C116.3 616.4 111.2 628.1 112.3 627C112.6 626.7 115.9 622.2 119.5 617C132.9 598.1 147.4 582.2 162.1 570.4C168.6 565.1 169.9 564.5 176.8 563.3C181.1 562.6 193.3 561.7 204 561.4C234.3 560.4 258 563.1 288.7 571C311.4 576.9 344.2 589.2 342.3 591.1C341.8 591.6 335.4 590.8 328 589.5C268.3 578.4 208.6 578.4 167.1 589.5C158.6 591.8 142.5 597.9 143.2 598.5C143.4 598.7 149.4 597.3 156.6 595.5C184.3 588.5 201.7 586.5 235 586.6C262.4 586.6 279.2 588 303.5 592C318.4 594.5 325 596 325 596.9C325 597.3 309.4 597.6 290.3 597.6C245.1 597.6 221.1 599.9 196.2 606.5C172 612.9 153.2 624.9 145.8 638.7C140.7 648.2 141.2 649 148.1 642.4C157.7 633.2 163.8 628.8 174.7 623.3C198.9 610.9 225.7 606.1 264 607.4C281.6 607.9 296.7 609.1 302.8 610.5C306.5 611.4 304.4 612.8 298.2 613.5C222 622 176.2 636.1 156.8 656.7C152.2 661.7 147.4 669.7 148.4 670.7C148.7 671.1 151.2 669.2 153.9 666.7C172.9 648.9 206 637.3 252.5 632C270.8 629.9 281 629.5 281 630.9C281 631.3 276.2 632.7 270.3 633.9C217.3 644.8 179.8 660.7 162 679.7C155 687.2 151.4 693.9 149.9 702.9C148.2 712.1 149.5 713.7 153 707.1C167.5 680.6 203.8 659.8 260.9 645.5C274.8 642 277.8 642.6 267.5 646.8C263.1 648.6 254.6 652.2 248.5 654.8C205.2 673.2 175.6 696.4 164 721.1C161.1 727.4 156.6 742.9 157.4 743.8C157.7 744 159.1 741.8 160.6 738.8C167.3 725.5 178.9 710.9 191.7 699.7C207.7 685.6 237.7 667.7 262.3 657.5C272.3 653.4 277 653.1 270.5 657C221.1 686.9 189.1 718.8 176.9 750.4C172.7 761.2 169.8 775 170.2 782.3L170.5 788.3L173.9 779.9C190.2 739.6 213.8 708.4 247.4 682.7C258.2 674.5 272.4 665.7 272.8 666.9C273 667.5 270 671.5 266.1 675.7C235.1 710 219.7 740.9 212.5 783C211.6 788.4 213.3 785.5 217.5 774.5C227.6 747.8 242.9 721.4 258.2 704.4C266.5 695.2 272.8 689.4 273.7 690.3C274 690.7 272 696.1 269.2 702.4C260 722.9 256.2 740.1 255.3 765C254.6 783 255.8 808.6 257.1 803C257.5 801.1 258.9 792.3 260 783.5C263 761.2 268 737.7 273.4 720C275.5 713 277.4 714.2 278.3 723C280.5 744.7 287.2 784.6 289 786.4C289.6 787 289.7 785.9 289.5 783.9C288.4 776.1 287 733.1 287 709.2V683.5L290 678.2C294.8 670 294.9 670.1 297 690C298.8 706.5 306.1 740 307.9 740C308.2 740 308.3 733.2 308.1 724.8C307.7 708 309.4 671.1 311.4 655.3C312.4 646.9 313 644.6 315 642.5C318.9 638.3 319.7 639.2 320.4 648.7C322.4 675.1 325.3 694.3 330.1 713.5C331.8 720 333.4 726 333.8 726.6C334.2 727.3 334.5 712.3 334.6 693.2C334.6 662.8 335.9 635.5 337.6 626.7C338 624.8 339.3 623.4 342 622C347.8 619 348.6 619.3 350.3 625.7C354.7 641.6 361.9 679.9 363.5 696.5C365.2 713.3 366.7 704.3 367.6 671.5C368.2 650.3 367.1 621.6 365.5 616C364.7 613.4 366.6 611.8 371.2 611.3L375.7 610.8L378.4 617.8C384.1 632.6 389.6 652.6 397.8 687.5L398.7 691.5L399.5 684.5C400.5 675.5 399.4 645.6 397.5 631.5C396.7 625.4 395.7 618.1 395.3 615.1L394.7 609.7L399.9 610.3C402.8 610.7 405.8 611.4 406.5 612C408.7 613.8 414.6 640.4 417.5 661.6C418.4 668.2 419.3 673.6 419.5 673.8C420.8 675.2 424 645.4 424 631.3C424 625.2 424.4 619.8 425 619.5C427.5 617.9 446.2 631.1 457.5 642.4C470.5 655.4 485.8 676.1 498.8 698.3C507.7 713.4 509.8 718.2 509.8 723.3C509.8 726.3 511 730.7 512.9 735.5C514.6 739.5 516 744.2 516 745.9C516 747.6 516.9 751.3 518.1 754.1C519.5 757.7 519.9 760.5 519.5 762.9C519.2 765.1 519.5 768.2 520.4 770.7C521.5 774 521.8 777.8 521.4 786.9C520.9 798.1 521.1 799.2 523.5 805.1C525 808.6 526.2 813.3 526.2 815.5C526.2 817.7 527.1 821.7 528.2 824.5C529.5 827.9 530 830.8 529.7 833.5C529.4 835.8 529.8 840 530.7 843.3C532 847.8 532.1 849.8 531.3 852.3C530.7 854.1 530.2 859.3 530.1 863.9C530.1 870.7 530.6 873.4 532.6 878.3C534.2 882.1 535 885.5 534.7 887.4C534.5 889.1 535.1 892.6 536.1 895.3C537.3 898.3 537.9 902.3 537.9 906.3C537.8 909.7 538.1 914.8 538.5 917.6C539 921.1 538.8 923.5 538 925C537.3 926.3 536.6 930.9 536.4 935.2C536.2 941.6 536.6 944.3 538.6 949.6C539.9 953.2 541 957.9 540.9 960.3C540.8 962.6 541.5 966.7 542.5 969.3C544 973.5 544.1 974.6 543 978.1C542 981.1 541.9 982.6 542.8 984.5C544.5 988.1 544.3 994.6 542.5 997.4C541.6 998.7 541 1001.5 541.1 1003.6C541.2 1005.8 540.9 1009.2 540.5 1011.2C539.9 1014.1 540.3 1016.2 542.1 1020.2C543.5 1023.5 544.5 1027.7 544.6 1031.5C544.7 1034.8 545.5 1039.5 546.4 1041.9C548 1046.1 548 1046.7 546.5 1050C545.3 1052.8 545.1 1054.2 545.9 1056.4C547.6 1060.7 547.2 1067.1 545.3 1069.3C544.2 1070.4 543.4 1073.1 543.3 1075.9C543.2 1078.4 542.8 1082.1 542.5 1084.1C542 1086.7 542.5 1089.2 544.5 1093.9C546.5 1098.7 547 1101.2 546.5 1104C546.1 1106.5 546.5 1109.6 547.9 1113.6C549.7 1119 549.7 1119.7 548.3 1122.1C547.1 1124.1 546.9 1125.8 547.6 1129.6C548.7 1136.1 548.2 1140.1 546 1142.5C545 1143.6 544 1146.5 543.7 1149C543.4 1151.5 542.8 1154.9 542.5 1156.7C542 1159 542.5 1161.7 544.5 1166.6C546.8 1172.3 547.1 1173.9 546.2 1176.8C545.3 1179.5 545.5 1180.9 547.1 1184.3C549.4 1189.5 549.5 1192.3 547.4 1195.6C546 1197.7 545.9 1198.7 546.9 1201.9C548.7 1207.9 548.3 1211.1 545.3 1214.2C543.5 1216.1 542.6 1218.1 542.6 1220.7C542.5 1222.8 541.9 1226.3 541.1 1228.6C539.9 1232.4 540 1233.1 542.3 1238.1C545.4 1244.7 545.5 1245.5 544.5 1250.3C544 1252.8 544.2 1254.9 544.9 1256.3C547.6 1261.5 547.9 1264.8 545.9 1267.4C542.4 1271.9 543.5 1275.3 549.7 1278.8C552.3 1280.2 557.2 1280.4 558.5 1279.1C561.3 1276.6 566.2 1276 571.3 1277.7C577.2 1279.6 582.9 1278.6 589.2 1274.4C592.2 1272.5 594.3 1272 599.2 1272C610.1 1271.9 618.4 1266.4 621.5 1257.1C622.4 1254.3 624.4 1250.5 626.1 1248.4C627.7 1246.4 629 1244.1 629 1243.4C629 1241.8 626.5 1239.3 624 1238.5C621.5 1237.7 621.5 1236.7 624.1 1231.4C625.7 1228 625.9 1226.7 625 1225.1C624.4 1224 624.2 1221.3 624.6 1219.1C625.2 1215.6 624.9 1215 622.1 1212.9C618.3 1210.1 618.2 1207.8 621.6 1201.1C624 1196.6 624.1 1195.7 623 1193C622.3 1191.3 620.9 1189.5 619.9 1188.9C616.7 1187.2 618.2 1179.6 622.4 1176.1C623.3 1175.3 624 1173.4 624 1171.8C624 1169.6 623.3 1168.5 621 1167.2C617.6 1165.3 617.3 1163.7 619.6 1159.1C620.9 1156.5 621 1155.3 620.1 1153.3C619.5 1151.9 619.2 1149.3 619.6 1147.5C620.1 1144.7 619.7 1143.7 617.1 1140.9C613.5 1137.2 613.3 1135.3 616 1130C618.8 1124.6 618.5 1121.5 615 1117.8C613.4 1116.1 612 1114.1 612 1113.5C612 1112.8 613.3 1109.6 615 1106.5C616.6 1103.4 618 1100.3 618 1099.8C618 1099.2 616.4 1097.3 614.5 1095.5L611 1092.3L612.6 1088.5C613.8 1085.4 614 1083.8 613.2 1081C612.6 1079.1 612.4 1076.3 612.7 1074.8C613.1 1072.8 612.6 1071.5 610.7 1069.8C607.3 1066.6 606.7 1063.8 608.5 1059.5C610.7 1054 610.4 1049.6 607.5 1046.2C604.5 1042.6 604.4 1039.7 607 1034.7C608.1 1032.7 609 1029.9 609 1028.6C609 1026.3 608.5 1025.5 604.5 1022.1C603.4 1021.3 603.1 1020.2 603.7 1019.1C604.1 1018.2 604.4 1013.7 604.2 1009C604 1001.5 603.7 1000.3 601.3 997.8C599 995.4 598.8 994.6 599.4 990.3C601.3 977.9 601.3 978.5 598.6 975.3C595.6 971.8 595.3 968.5 597.5 963.3C599.8 957.8 599.4 954.8 596 951.8C593.3 949.4 593.1 948.9 594.1 946.1C594.7 944.3 594.9 941.5 594.6 939.7C594.2 937.9 593.8 934.8 593.6 932.7C593.4 930.5 592.2 927.8 590.9 926.4C588.5 923.8 588.2 921.1 589.5 912.7C590.2 908.6 589.9 907.5 587.6 904.2C584.6 899.9 584.3 896.5 586.5 891.3C588.5 886.5 588.4 885.7 585.3 881.9C583 879.2 582.5 877.6 582.4 872.6C582.1 862 581.3 857.9 579 855.5C576.8 853.1 576.5 851.3 577.1 840.8C577.3 837 576.8 835.3 574.5 832C571.7 828 571.7 827.9 573 822.2C574.7 815.2 574.4 813.2 571.7 810.2C570 808.4 569.5 806.5 569.4 802.2C569.2 793.9 567.4 786 565 783.5C563.3 781.7 563 780.2 563.2 773.4C563.4 766.2 563.2 765.1 560.5 761.2C557.7 756.9 557.7 756.8 558.9 750.5C560.2 744 559.6 741.1 556.4 738.5C555.7 737.9 554.9 733.5 554.6 728C554 719.2 554.2 717.4 557.4 704.8C570.3 654.4 596.1 620.8 637.8 600C673.4 582.3 715.1 576.6 747.4 585C757.4 587.6 765.6 590.8 767.5 592.6C768.7 593.8 769 596.6 768.9 605.3C768.9 611.5 768.5 619.2 768.1 622.5C767.6 625.8 767.4 628.7 767.6 628.9C768.3 629.7 773.5 617.2 776 608.5C777.6 603 779.2 599.4 780.1 599.2C781.6 598.9 794.1 606.8 800 611.8L803.4 614.7L803.3 625.6C803.2 631.6 802.8 639.2 802.5 642.5L801.9 648.5L803.7 645.5C804.6 643.8 806.8 638.5 808.5 633.6C810.2 628.7 812.1 624.5 812.6 624.3C813.2 624.1 817.1 627.5 821.3 632C827.2 638.1 829 640.6 829 642.7C828.9 645.6 826.8 658.3 825.5 663.4C824.3 667.9 826.4 665.9 831.1 658C833.4 654.1 835.8 651 836.5 651C838.1 651 841.9 657 850 672.4C857.1 686 857.2 687.4 852.4 699.5C850.9 703.1 850 706.3 850.2 706.6C850.5 706.8 852.7 704.3 855.1 701C857.5 697.7 859.9 695.1 860.5 695.3C861 695.5 865.5 703.4 870.4 712.8C875.3 722.3 879.5 729.8 879.7 729.6C880.1 729.3 871.7 701.5 868.1 691.5C866.9 688.3 866 684.7 866 683.5C866.1 679.7 870.7 667.5 872.1 667.5C874.1 667.5 882 677.7 895.2 697.5C907.8 716.5 909.5 717 901.1 699.5C895.6 687.9 887.4 674.4 879 663C873.4 655.5 873 654.6 873 649.5C873 645.4 873.4 644 874.4 644C876.4 644 887.7 657.2 902.3 676.5C908.9 685.3 914.5 692.7 914.7 692.9C914.9 693.1 915.2 693.1 915.4 692.9C916.1 692.2 909.7 678.1 905.3 670.4C898.8 659.4 890.1 647.8 880.7 637.5C872.7 628.9 871.9 627.6 870.9 622.5C870.3 619.3 870.1 616.6 870.4 616.2C871.5 615.2 875.4 617.7 883.1 624.4C892.1 632.1 902.2 643.5 913.2 658.2C917.7 664.2 921.4 669 921.6 669C923.2 669 913.5 650.6 906.7 640.5C899.6 630.1 882.5 612.5 872.7 605.6C865.6 600.5 860.8 593.8 862.9 591.7C864.3 590.3 885.4 602.8 901.4 614.6C908.4 619.8 914.4 623.9 914.7 623.6C915 623.4 911.2 619 906.3 613.9C887.5 594.3 863.1 578.6 838.4 570C832.1 567.8 828.3 565.9 826.4 563.8L823.5 560.7L828.2 561.3C841 563 874 576.7 891.5 587.6C901.7 594 902 594.2 902 593.8C902 592.9 887.6 581.7 878.9 575.8C856.2 560.6 835.2 552.8 807.7 549.5C803.7 549 802.6 548.3 800.5 545.2C796.4 539.3 796.8 539 808.3 539C832 539 856.8 544.2 886.5 555.4C894.4 558.3 893.3 557.1 882.5 550.7C867.1 541.6 845.2 533.6 827 530.3C814.5 528.1 791.7 528.1 779.2 530.3C774.2 531.3 769.8 532 769.5 532C768.4 532 765.9 525.7 766.7 524.9C768.5 523.1 784 520 796.7 518.8C811.8 517.4 833.4 518.6 855.4 522C862.5 523.1 868.5 523.8 868.7 523.6C869.4 522.9 851 517.2 840 514.6C821.4 510.3 814.9 509.5 797.5 509.5C778.9 509.5 770.1 510.9 755.3 515.9C748.3 518.3 746.3 518.6 742.3 517.9C726.7 515 712.2 526.4 705.5 546.8C703.7 552.4 698.3 559.7 696.9 558.3C696.5 557.9 695.7 554 695.1 549.7L694 541.9L697.9 534.2C705.9 518.4 721.4 500.3 737 488.4L743.5 483.5H762C772.2 483.6 784.8 484.2 790 484.9C825.5 489.7 860.9 503.2 892 524C900.2 529.5 900.8 529.7 897 525.5C883.1 510.5 857.1 493.2 834.6 483.9C826.6 480.6 822.8 478 825.9 478C828.4 478 849.8 482.4 862.5 485.6C873.5 488.4 905.9 498.5 913.9 501.7C914.7 502 910.2 497.1 903.9 490.9C891.6 478.6 884 473.5 868.3 467.2C844.9 457.8 808.3 453.6 784.8 457.5C774.6 459.2 769 459 769 457C769 454.6 784.9 449.9 801 447.5C810.7 446.1 814 446 822 447C844.5 449.7 870.7 456 890.5 463.3C897.1 465.8 903.4 468.1 904.5 468.5C909.3 470.1 895.5 462.2 885 457.2C873.7 451.8 871.9 449.7 880.5 451.9C882.9 452.5 885.5 453 886.2 453C888.7 452.9 878.4 448 869.5 445.1C853.9 440 843 439 802.5 438.7C782.4 438.6 766 438.2 766 437.9C766 437 778.2 431.6 788.5 428C796.9 425 798.4 424.8 812 424.6C820 424.6 831.9 424.8 838.5 425.3C852.4 426.1 852.1 425.2 837.5 422.1C824.2 419.2 824.5 419.4 826.1 417.3C827.4 415.8 827.2 415.7 825 416.4C823.6 416.8 812.6 417.5 800.5 418C788.4 418.5 775.2 419.4 771.1 420C763 421.1 760.4 420.3 764.3 417.8C765.6 416.9 773 413 780.9 409C788.8 405.1 795 401.7 794.7 401.4C793.6 400.3 751.1 418.3 740.5 424.5C738.3 425.7 731.9 428.4 726.2 430.5C720.5 432.5 712.6 435.7 708.7 437.6C704.8 439.4 701.4 440.7 701.1 440.5C700.3 439.6 705.2 435.1 715.2 427.4C732.3 414.3 756.4 399.9 766.7 396.6C769.5 395.6 772.9 393.9 774.3 392.7C775.6 391.5 777.6 390 778.6 389.3C781.8 387.3 773.6 389.8 761 394.7C754.7 397.1 743.4 401.2 736 403.6C720.2 408.9 703.4 416.7 689.9 425C684.5 428.3 679.6 431 679 431C675.4 431 697.8 409.5 715 396.5C727.2 387.3 742.8 377 744.6 377C745.4 377 746 376.6 746 376.1C746 375.6 748.4 373.8 751.3 372.1C757.4 368.5 756.4 368.1 748.5 371.1L743 373.2L735 365.6C725.4 356.7 715.5 350.3 704.3 345.9C699.7 344.1 696 342.4 696 342C696 339.2 707.2 341.3 724.9 347.5C740 352.8 752.7 359.3 768.9 370.2C771.3 371.8 773.4 372.9 773.6 372.7C774.4 372 764.2 363.3 757 358.5C747.2 352 735.1 346.2 722.5 341.9C708.4 337.1 707.6 335.5 719.7 336.3C731.4 337.1 752.9 342.7 767.2 348.5C777.1 352.6 793.4 360.9 800.9 365.8C802.3 366.8 803.1 367 802.7 366.3C802.3 365.6 797.8 362.3 792.7 358.9C781.8 351.6 761.6 341.6 747 336.4C735.5 332.3 734.1 331.5 735.6 330C737.5 328.1 766.4 335.8 787.5 343.7C804.8 350.3 821.5 358.5 839.5 369.4C845 372.7 835.1 364.2 827.5 359.1C809.9 347.2 790.5 338.8 760.3 330C752.9 327.9 750.8 326 755.8 326C760.6 326 793.1 332.9 808 337.1C829.4 343.2 846.5 349.7 863.8 358.4C873.4 363.2 872.2 361.5 861.5 355C841.4 342.9 818.9 334.8 786.2 328C778.9 326.4 772.6 324.9 772.3 324.6C770.7 323 774.1 322.5 784.8 322.7C814.5 323.1 857.5 330.2 883.4 339C888.3 340.6 892.5 341.8 892.7 341.6C893.3 341.1 880.1 335.7 870.5 332.6C860.1 329.3 844.6 325.7 829.1 323.1C822.2 321.9 816.4 320.8 816.2 320.5C814.5 318.9 820.1 318.5 845.3 318.5C873.1 318.6 887.1 319.6 904.3 322.6C909.1 323.5 913.3 324 913.6 323.7C914.4 322.9 897.3 317 885.1 313.9C854.6 306.1 816.2 305.9 786.4 313.5C781 314.9 775.9 316 775.2 316C772 316 776.8 312.6 788.2 306.9C816.7 292.6 845.5 284.1 880.4 279.6C887 278.7 892.5 277.8 892.8 277.6C893.7 276.7 874.2 278.2 860.5 280.1C829.4 284.5 793.2 295.8 764.9 310C760.5 312.3 756.5 313.9 756.2 313.6C754.5 311.9 773.7 297 791 286.5C810.2 274.8 839.7 261.1 870.3 249.5C877.3 246.9 882.8 244.5 882.6 244.3C882.4 244 876.6 245.2 869.7 246.9C824.7 257.8 782.5 278.1 737.1 310.7C733 313.6 729.4 315.7 729.1 315.4C728.2 314.4 744.9 299.1 757.8 289C785.6 267.4 821.6 246.2 856.4 230.9C861.8 228.5 865.8 226.4 865.3 226.3C864.8 226.1 857.6 228.3 849.4 231.1C803.5 247 760 271.5 716 306.5C709.6 311.5 703.2 316.5 701.6 317.5C698.7 319.4 698.7 319.4 699.8 317.5C701 315.1 716.9 299.7 730.5 287.6C759.6 261.8 794.5 236.9 832.2 215C839.2 210.9 844.8 207.5 844.6 207.3C844.4 207.1 837.8 209.7 829.9 213C783.9 232.6 740.3 262.2 694.2 304.9C687.4 311.3 680.7 317.3 679.4 318.3C671.6 324.3 683.9 307.9 710.2 277.2C750.4 230.3 793 191.7 828.4 170C833.1 167.1 837 164.6 837 164.4C837 163.5 829 167.4 819.5 172.7C798.6 184.5 775.8 201.1 750.5 222.9C735.6 235.7 695.5 276.1 678.4 295.5C659 317.6 655.1 321.8 655 320.3C655 317.2 683 278.9 702.4 255.5C731.6 220.4 766.1 188.1 798 165.8C815.2 153.9 814.1 154.7 809.8 156.4C807.7 157.2 801.2 160.7 795.3 164.1C743.9 193.5 696.8 237.9 648.3 302.5C628.9 328.4 628.4 327.5 644.7 296.5C675.3 238.5 703.4 202.3 741.7 172C748.8 166.5 755.9 160.8 757.5 159.4L760.5 157L756 159.1C735.9 168.7 710.4 187.4 690.5 207.4C661.5 236.5 645 262 620.6 315.4C618.6 319.8 616.7 323 616.4 322.7C615.1 321.4 625.5 276.5 630 263.5C641.1 231.8 665.1 201.5 703.7 170.3C707.6 167.1 710.7 164.4 710.5 164.1C709.9 163.5 691.3 173.7 683.5 179C663.5 192.5 646.2 209.8 635.5 227C634 229.5 632.1 231.9 631.4 232.3C630.6 232.7 630 233.9 630 234.8C630 235.7 629 238.1 627.8 240C625.5 243.6 623.3 248.4 617.3 263.2C615.3 268.2 613.2 272 612.4 272C611.6 272 608.7 270.6 605.9 268.8C601.2 265.9 600.8 265.5 601.3 262.5C601.6 260.8 603.6 254.9 605.7 249.4L609.6 239.5L614 239.7L618.4 239.9L615.2 238C611.5 235.7 611.5 235.9 613.6 231.7C616.6 225.9 616.7 225.8 622.3 228.8C625.2 230.3 627.9 231.7 628.5 231.9C629 232.1 627.3 229.8 624.7 226.8C622.1 223.8 620 220.8 620 220.3C620 219.7 623.3 214 627.4 207.6C631.5 201.2 634.6 196 634.2 196C633.8 196 629.2 200.6 623.9 206.2L614.2 216.4L611.4 214.5C603.9 209.6 596.6 206.1 591.7 205C583.9 203.2 573.5 204.1 567.8 207C565.1 208.3 562.7 209.1 562.4 208.7C561.3 207.6 569 196.9 575.4 190.5C585.2 180.8 600.2 174.2 613 173.9C616.8 173.8 617.1 173.7 615 173C610.8 171.7 600.8 171.9 594.7 173.5C582.7 176.6 570.9 184.6 561 196.4C557.6 200.6 554.3 204 553.8 204C552.6 204 553.8 199.7 557.7 190.6C564.4 174.8 575 159.3 588 145.9C598 135.6 599 135.6 599 145.9C599 158.2 601.1 162 607.8 162C612.2 162 612.4 159.7 608.4 152.3C604.3 144.6 604.5 148 605 95.5001C605.1 77.9001 605 63.7001 604.7 64.0001C604.1 64.6001 601.1 96.6001 600.4 109.5C600.2 114.4 599.7 121.3 599.4 124.7L598.8 130.9L590.6 136.4C575.2 146.7 561.3 164.4 548.9 189.7C545.6 196.5 542.5 202 542 202C539.5 202 547.6 179.8 557.5 159.5C567.3 139.3 578.3 122.8 590.3 110.3C592.6 107.9 594.1 105.8 593.8 105.5C592.9 104.5 580.5 114.7 573.6 122.1C560.5 136.3 546.2 161 534.5 190C526.6 209.4 525.9 206.2 532.9 183.6C543.9 148.7 559.4 113.7 573.5 91.9001C580.5 81.0001 580.5 80.1001 573.3 87.5001C556.1 105.2 539.9 137.3 524 185.2C519.5 199 517 204.6 517 201C517 198.7 523.4 167.5 527.6 149.1C539.4 98.0001 550.6 64.1001 564.6 36.8001C570.3 25.8001 569.9 25.1001 563.5 34.9001C546.2 61.8001 529.8 109.4 512 185C508.6 199.5 506.3 204.5 507.5 195C508.9 183.3 513.2 157.9 517.1 138.6C526.7 90.6001 539.4 49.1001 552.7 22.5001C557.9 12.3001 556.1 12.8001 549.5 23.4001C531.1 53.0001 515.5 103.4 502.1 176.4C499.9 188.4 497.9 198.5 497.5 198.8C495.7 200.7 498.8 158 503.1 124.6C508.3 83.1001 515.5 52.5001 526.5 25.0001C529.5 17.6001 531.8 11.5001 531.7 11.4001C531.6 11.2001 529.8 13.7001 527.8 16.8001ZM586.5 218C586.8 218.5 585.8 220.9 584.1 223.3L581.1 227.7L567.3 228.3C556.6 228.7 550.8 229.5 541.5 231.9C528 235.4 528 235.4 528 234C528 230.6 546.9 221 558.4 218.5C565.6 216.9 585.6 216.6 586.5 218ZM602.8 220.6C606.2 221.5 608 222.6 608 223.6C608 226 603 232 600.9 232C598.8 232 587.9 229.3 587.2 228.5C586.6 227.9 588.4 223.7 590.7 220.2C592.3 217.6 592.4 217.6 602.8 220.6ZM575.5 234.9C575.8 235.5 574.1 239.7 571.8 244.4C567 254.1 568.5 253.5 553.4 251.6C547.4 250.9 540.2 250.7 535.4 251.1C531.1 251.5 525.7 251.9 523.6 252.1C508 253.5 540.6 239.3 561.5 235.6C571.3 233.9 574.7 233.7 575.5 234.9ZM598.5 236.1C599.1 236.8 598.8 238.2 597.6 240.3C596.6 242.1 593.9 247 591.7 251.3C588 258.6 587.5 259.1 585.1 258.7C579.6 257.6 577 256.1 577 254C577 251.3 583 235.7 584.4 234.7C585.8 233.7 597.2 234.9 598.5 236.1ZM537.8 260.1C538 261 537.5 262.4 536.7 263.2C535.2 264.6 530.5 264.4 517.1 262.4C509.2 261.2 521.1 258 532.5 258.4C536.2 258.5 537.6 258.9 537.8 260.1ZM562.6 259.7C564.3 260.3 564.1 262.9 562.1 268.2C560.8 271.6 559.8 271.6 549.5 268.2C542.9 266 541.4 265.1 541.2 263.2C540.5 258.6 542.6 257.7 552.2 258.4C557.1 258.8 561.7 259.3 562.6 259.7ZM582.6 264C584 264.6 585 265.6 584.7 266.3C584.5 266.9 583.5 270 582.5 273C581.5 276 580.2 278.8 579.7 279.2C579.1 279.5 577.1 279.1 575.2 278.2C571.9 276.6 571.8 276.4 572.3 272C572.6 269.5 573.3 266.2 573.9 264.6C575.1 261.6 576.1 261.6 582.6 264ZM606.8 272.5C609.6 273.8 612 275.4 612 276C612 278.8 606.4 295.3 605.3 295.7C604 296.2 596.4 291.3 595.6 289.4C595.2 288.3 597.3 275.8 598.5 271.9C599.3 269.4 600.4 269.5 606.8 272.5ZM530.5 271.9C533.1 272.5 533.5 273 533.3 275.4C533.2 277 532.7 278.7 532.3 279.1C531.9 279.5 526.3 278.5 520 276.9C513.7 275.3 507.7 274 506.8 274C505 274 504.5 272.9 505.7 271.7C506.5 270.8 526.5 271 530.5 271.9ZM553.9 276.5L559.2 278.1L558.6 282.2C558.2 284.4 557.5 287.1 556.9 288.1C556 289.9 555.7 289.8 550.2 287.4C547.1 286 543.5 284.4 542.3 283.9C540.5 283.2 540 282.3 540 279.2C540 277.1 540.3 275 540.8 274.6C541.7 273.7 546.7 274.4 553.9 276.5ZM577.4 285.1C578.5 286.1 576.6 297.8 575.1 299.3C574.4 300 573.2 299.7 571.4 298.5C568.9 296.9 568.8 296.4 569.3 291C569.6 287.8 570.1 284.6 570.5 284C571.3 282.8 575.8 283.5 577.4 285.1ZM530.3 287.7C531.2 288.3 531.2 297.7 530.2 298.4C529.8 298.6 525.2 297.6 520 296.1C512.3 293.9 510.4 293 510.2 291.4C509.8 288.9 511.6 287.3 515.5 286.7C518.6 286.2 529 286.9 530.3 287.7ZM506 290.5C506 292.6 503.2 293.6 501.7 292.1C500.8 291.2 500.9 290.7 502 290C504.2 288.6 506 288.8 506 290.5ZM548.6 291.6C556 294.1 556.2 294.5 555.4 303.3C554.9 308.8 554.3 311 553.4 311C550.8 311 541.8 304.7 540.9 302.3C540.4 301 540 297.6 540 294.9C540 289.2 540.6 289 548.6 291.6ZM600.1 296C602.3 297.2 604.3 298.6 604.6 299.3C604.8 300 603.9 304.3 602.5 309C601 313.7 599.4 319.3 598.9 321.5C598.3 323.7 596.8 329.1 595.4 333.5C590.5 349.6 589.5 347.9 591.4 326.4C592.3 317.1 593.2 306.4 593.6 302.5C594.1 295.8 594.6 294 595.6 294C595.9 294 597.9 294.9 600.1 296ZM573.3 302.8C574.7 304.3 574.8 306.1 574.2 314.5C573.6 323.6 573.3 324.5 571.5 324.5C569.1 324.5 568.3 321.4 568.1 311.3C567.9 301.1 569.5 298.6 573.3 302.8ZM504 303.4C504 305.2 502.5 305.7 498.8 305.2C494.3 304.5 495.3 302 500 302C502.8 302 504 302.4 504 303.4ZM525.5 304.8L530.5 306.5L530.8 311.7C531 314.6 530.7 317 530.3 317C528.5 317 510.8 307.6 510.3 306.3C510 305.6 510.1 304.3 510.4 303.4C510.9 302.1 511.9 301.9 515.8 302.5C518.4 302.9 522.8 303.9 525.5 304.8ZM440 321.2L445.2 336.5L442.1 342.5C437.7 351.2 427.3 367 426 367C424.5 367 424.7 365.3 427.9 346C429.6 336.4 431.2 324.4 431.5 319.5C432.2 308.9 432.7 306 433.9 306C434.4 306 437.1 312.9 440 321.2ZM549.3 314.1C551.6 315.3 553.8 316.8 554.2 317.4C554.6 318 555 322.4 555 327.2C555 337.3 554.5 337.7 548.6 332.5C545.4 329.7 544.5 328 543.4 322.8C540.9 311.1 541.6 310.2 549.3 314.1ZM503.2 318.3C503.6 319 504 320.7 504 322.2C504 325.3 502.2 325.8 497.6 324C495.6 323.3 495 322.3 495 320.1C495 318.5 495.6 316.9 496.3 316.6C498 315.9 502.3 316.9 503.2 318.3ZM523.6 322.1C531.9 325.6 532.2 326 534 336C534.6 339.6 535.3 343.3 535.6 344.2C536.5 347.2 534 346.2 528.1 341.2C525 338.5 520.6 335.1 518.3 333.5C514 330.8 512 326.8 512 321.2C512 318.1 514.5 318.3 523.6 322.1ZM572.7 328.2C573.8 329.5 575.4 353 574.5 353C572.9 353 568.3 330 569.5 328C570.3 326.6 571.6 326.8 572.7 328.2ZM504.7 336.7C506.9 338.7 510.5 350.9 509.3 352.1C508.5 352.8 497.6 345.3 495.4 342.5C494.8 341.7 494.5 339.7 494.8 338C495.2 335.3 495.6 335 499 335C501.2 335 503.6 335.7 504.7 336.7ZM552.9 338.7C555.4 341.1 556 342.8 557.4 351.7C559.2 363.5 559.4 367 558 367C557.5 367 556.4 365.8 555.6 364.2C553.9 360.8 547 339.5 547 337.5C547 335.2 549.7 335.7 552.9 338.7ZM529.1 347.7L537.5 353.5L541.2 364.5C548.5 386.5 544.5 387.3 530.5 366.5C524.6 357.6 517.8 344.2 518.6 342.8C519.5 341.4 520.3 341.8 529.1 347.7ZM697.7 350.5C703.2 352.4 711.1 355.5 715.2 357.6C725.1 362.5 739 371.8 739 373.5C739 374.2 737.3 375.4 735.3 376C730.5 377.5 715.2 385.6 703.5 392.9C688.4 402.2 671.3 415.7 656.8 429.8C647 439.3 643 442.7 643 441.3C643 436.4 658.6 408.7 667.2 398.3C673.8 390.4 697.4 371 700.5 371C701.3 371 704.1 372.9 706.7 375.2C710.7 379 711.2 379.2 710.5 377C707.7 368 700.2 361.1 685.3 354C680.7 351.8 677 349.6 677 349.2C677 347.6 681.5 346.1 684.5 346.6C686.2 346.9 692.1 348.7 697.7 350.5ZM304.1 351C306.7 352.4 306.5 353.2 302.6 358.7C300.8 361.4 298.3 365.4 297.1 367.7C295.8 370.4 294.3 372 293.2 371.9C289.9 371.8 281.6 368.5 281.2 367.2C281 366.4 284.4 362.3 288.7 357.9C296.9 349.7 299.5 348.6 304.1 351ZM678.7 358C687.5 361.4 695 365.7 695 367.3C695 369 679 379.4 678.1 378.4C675.6 375.4 672 370 672 369.3C672 368.9 669.3 366.3 666 363.7C662.7 361 660 358.2 660 357.6C660 355.6 664.2 354 668 354.6C669.9 354.9 674.7 356.4 678.7 358ZM506.9 359.8L514.3 363.6L519.7 375.5C522.6 382 525 387.5 525 387.7C525 389.2 521.6 386.8 514.7 380.5C510.2 376.3 503.3 370.8 499.5 368.1C492.2 363.2 490.3 359.7 493.1 356.4C494.8 354.4 497.7 355.1 506.9 359.8ZM331.7 364.2C337.8 367.6 348.4 374.2 355.2 378.9L367.5 387.6L372.4 397C378.3 408.4 384.4 425 383.2 426.2C382.7 426.7 379.9 424.1 376.5 420C370.1 412.2 354.3 397 352.6 397C352.1 397 353.4 398.9 355.6 401.2C366.1 412.2 379.4 430.9 386.4 444.5C390.3 452.2 392.4 460.6 390.7 461.7C390.1 462.1 389.4 461.8 389.2 461.2C388.2 458 363.9 422.5 358.1 415.6C345.8 400.9 329.9 388.9 310.8 379.7C304.1 376.4 300 373.9 300 373C300 369.7 314.3 358 318.4 358C319.6 358 325.5 360.8 331.7 364.2ZM657.4 366.8C660.1 368.3 662.5 370 662.7 370.6C663.2 372.2 654.3 377.3 652.7 376.4C649.7 374.6 645 370.4 645 369.6C645 368 649.3 364 650.9 364C651.8 364 654.7 365.3 657.4 366.8ZM454.4 369.2C454.7 370.5 455.6 374.5 456.4 378.3C457.3 382.5 457.4 385.2 456.8 385.6C455.7 386.3 455.9 386.6 452.6 380.9C449.8 376 449.4 373.6 451 369.6C452.2 366.4 453.8 366.3 454.4 369.2ZM463.3 374.5C466.4 379.8 466.6 380.6 464.5 381.4C463.3 381.8 462.4 380.7 461 377.4C457.4 369.1 458.9 367.3 463.3 374.5ZM561 372.6C561 373.4 560.6 373.8 560 373.5C559.5 373.2 559 372.2 559 371.4C559 370.6 559.5 370.2 560 370.5C560.6 370.8 561 371.8 561 372.6ZM672.4 376.4C675 378.6 676.1 380.3 675.7 381.3C674.9 383.4 665.1 390 663.6 389.4C662.3 388.8 657 381.4 657 380.1C657 378.5 664.4 373 666.5 373C667.6 373.1 670.3 374.6 672.4 376.4ZM643.4 378.5C645.4 379.3 647 380.6 647 381.4C647 382.1 644.8 384.6 642.1 386.8C630.2 396.9 618.2 415.3 609.4 437.3C604.7 449.1 602 453.7 602 449.8C602 446.3 606.4 430.7 610.1 421.4C616.2 405.7 634.5 377 638.4 377C639.1 377 641.4 377.7 643.4 378.5ZM450.6 382.5C452.7 387.6 452.4 388.9 448.5 390.7C443.2 393.2 442.4 391.5 445.4 384.6C446.8 381.5 448.2 379 448.5 379C448.8 379 449.8 380.6 450.6 382.5ZM513.1 384.7C515.8 386.1 518 387.7 518 388.2C518 388.6 518.6 389 519.3 389C521.5 389 530 397.1 532.1 401.2C534.2 405.3 534.1 408 531.8 408C529.9 408 517 396.1 517 394.4C517 393.6 516.5 393 515.8 393C514.2 393 506 384.9 506 383.3C506 381.4 507.7 381.7 513.1 384.7ZM493.9 390.5C496.2 394.6 500.5 401.6 503.5 406L509 414.1V423.3C509 433.5 508.1 436.2 505.6 434.1C504.7 433.3 504 431.3 503.9 429.6C503.9 427.9 503.5 425.6 503 424.5C502.3 422.9 502.1 423.1 502.1 426C501.9 430.4 500.8 432.2 498.7 431.4C496.5 430.6 496 428.6 494.6 415.6L493.4 404.5L492.2 411.1C491.5 414.7 491 419.1 491 420.8C491 424.4 489.1 425.1 486.9 422.3C485.8 421 485.6 416.9 485.8 403.1C486.3 380.1 487.3 378.5 493.9 390.5ZM657.5 387.1C659.4 388.8 661 390.7 661 391.4C661 392 657.9 394.9 654.1 397.8C646.6 403.5 629 421.3 625 427.3C622.3 431.3 620 432.8 620 430.6C620 427.8 629.3 410.8 635.1 403C641.9 393.8 651 384 652.8 384C653.4 384 655.5 385.4 657.5 387.1ZM479 406.5C479 410.2 478 410.9 476 408.5C474.6 406.8 475.6 403 477.6 403C478.5 403 479 404.1 479 406.5ZM476 427.5C479.5 433.8 480 435.5 479.5 438.7C478 447.6 477.1 448 473.6 441.2C470.4 435.1 470.4 437.6 473.5 448.4L476 457.1L473.9 465.3C471.3 475.8 470 477.3 467.3 472.8C465.5 469.7 465.3 467.7 465.4 444.4C465.5 424.2 465.8 418.9 467 417.5C468.3 415.9 468.5 415.9 470.2 418C471.2 419.2 473.8 423.5 476 427.5ZM408 426.5C411.4 430.3 414.8 434.4 415.5 435.5C417.3 438.1 418.5 450.5 417.2 451.4C416.6 451.7 414 447.6 411.2 441.7C408.5 436 404.7 428.8 402.7 425.7C396 415.3 398.5 415.7 408 426.5ZM522.8 432.2C526.4 436.8 526.6 437.8 524.6 438.6C522.1 439.6 519.1 437.1 518.1 433.3C516.3 426.8 518.2 426.3 522.8 432.2ZM458.6 431.2C459.3 433.4 458.3 454 457.4 457.3C457 458.6 456.5 458.8 455.5 458C453.8 456.6 452.2 450 451.5 441.2C451 434.4 451.1 433.8 453.4 431.5C456.5 428.4 457.7 428.4 458.6 431.2ZM588 432.2C588 432.9 586.5 438.9 584.6 445.5C582.7 452.1 580.9 458.7 580.6 460.2C579.7 464.2 578.3 463.6 577 458.9C575.4 452.9 576.7 447 581.6 438.5C585.7 431.5 588 429.3 588 432.2ZM749.9 434.4C748.8 435.4 722.9 448 721.9 448C719.8 448 724.1 444.1 729.4 441C736.7 436.9 752.9 431.6 749.9 434.4ZM492.4 450C497.6 455.5 497.8 456.8 495.2 465.5C493.1 472.4 491.3 473.4 488.6 468.9C486.5 465.4 484.9 445 486.7 445C487.3 445 489.8 447.2 492.4 450ZM433.9 469.4C435.3 476.8 435.3 481.7 434.1 480.4C433.2 479.6 431 466 431 462.2C431.1 459 432.8 463.2 433.9 469.4ZM842 467C855.6 469.8 870.5 475.1 884 482.1C903.4 492.2 906 496.3 888.3 488.7C868.1 480.1 849.7 473.5 833.4 469C829.1 467.8 825.1 466.4 824.6 465.9C822.9 464.3 831.7 464.9 842 467ZM514.5 470C514.9 470.6 514.9 471.8 514.6 472.7C514.1 473.9 513.7 474 512.5 473C511.7 472.3 511 471.1 511 470.4C511 468.8 513.6 468.5 514.5 470ZM485.1 477.2C486.4 484.1 486.2 490.6 484.5 492C483.3 493 483 492.8 482.6 490.8C479.8 478.5 479.2 475.5 479.6 474.3C481.1 469.4 481 469.5 482.7 471.2C483.5 472.1 484.6 474.8 485.1 477.2ZM506.3 477.5C510.5 486 510.7 487.9 508.2 491L506.4 493.3L502.8 488.9C497.4 482.1 497.1 481.2 498.8 475.2C499.6 472.4 500.8 470 501.4 470C502 470 504.2 473.4 506.3 477.5ZM467.7 486.4C467 491.5 465.3 493.1 463.4 490.6C461.7 488.3 461.6 484.2 463.1 480.3L464.2 477.5L466.2 480C467.7 481.9 468.1 483.4 467.7 486.4ZM242.4 482.1C246.3 483.4 249.6 485.1 249.8 485.9C250.2 487 249.6 487.1 247.4 486.5C245.8 486.1 238.5 484.5 231.2 483C223.9 481.5 217.6 479.9 217.2 479.5C215.5 477.7 235.8 479.9 242.4 482.1ZM524.8 487.3C528.1 493.9 528.7 496 527 496C525.3 496 520 486.8 520 483.8C520 479.5 521.2 480.4 524.8 487.3ZM721 488.2C721 488.9 718.2 491.7 714.9 494.5C708.5 499.8 701.1 507.8 694.1 517.2C691.7 520.4 689.4 523 689 523C688.6 523 686.6 521 684.5 518.5C681.8 515.2 678.6 512.9 672.3 509.9C665.4 506.5 664.1 505.5 665.2 504.5C667.4 502.3 690.6 494 704.4 490.5C718.9 486.7 721 486.4 721 488.2ZM452 490.4C452 491.8 449.9 496.2 449.4 495.8C448.6 495 450.1 490 451.1 490C451.6 490 452 490.2 452 490.4ZM498.4 495.1C499.4 496.8 500 499.1 499.6 500.3C499.3 501.4 499.6 503 500.1 503.6C501.5 505.3 500.3 509 498.3 509C494.9 509 491 503.1 494.3 502.9C494.9 502.9 494.5 502.4 493.3 501.8C490.6 500.5 490.5 500 492.4 495.5C494.2 491.2 496 491.1 498.4 495.1ZM518.5 498.9C523 505.9 523.8 508.4 522 509.5C520.9 510.2 511.4 500.6 510.5 497.8C509.8 495.9 511.6 492 513.1 492C513.6 492 516.1 495.1 518.5 498.9ZM476.8 496.2C478.8 498.2 478.3 502.8 475.9 503.5C472.7 504.6 471.6 502.8 473 498.6C474.2 494.7 474.9 494.3 476.8 496.2ZM533.4 502.6C534.3 505 534.1 505.4 532.5 504C530.8 502.6 530.5 501 531.9 501C532.4 501 533.1 501.7 533.4 502.6ZM512.4 512.6C517.4 518.7 517.8 520.1 515.5 522C513.4 523.8 511.2 521.7 508.3 515.2C504 505.4 505.6 504.4 512.4 512.6ZM475 509.4C475 510.2 474.6 511.1 474.1 511.5C472.9 512.2 471.7 510.3 472.5 509C473.4 507.5 475 507.8 475 509.4ZM489.5 514.7C489.8 516.8 490.3 519.3 490.4 520.2C490.6 521.1 490.2 522.7 489.5 523.7C488.4 525.1 487.7 525.3 486.4 524.4C483 522.4 482.6 520.6 484.5 515.7C486.6 510 488.7 509.6 489.5 514.7ZM637 528C640.7 540.4 648 577.6 648 584C648 586.3 647.1 587 640.3 590C598.2 608.2 568.4 640.2 553.5 683C551.5 688.8 549.5 693.9 549.1 694.3C548.7 694.7 547.1 693.3 545.5 691C542.9 687.2 542.8 686.6 543.4 679.9C543.9 673.8 543.7 672.3 542.1 669.6C540.2 666.7 540.2 665.6 541.1 656.5C545.4 612.1 558.6 582.2 585.4 555.5C597.4 543.7 608.3 535 609.7 536.4C610.1 536.7 609.3 539.2 608.1 541.8C605.4 547.2 601.8 557.2 602.3 557.7C602.5 557.9 604.2 555.3 605.9 552C612.9 539 628.7 521 633.2 521C634.5 521 635.5 522.8 637 528ZM504.4 526.9C509.9 532.5 509.9 534.4 504.5 535.4C501.5 536 500.3 535.7 498.5 534C496 531.6 495 527.3 496.2 524.1C497.3 520.9 499.1 521.5 504.4 526.9ZM526.6 528.6C527.5 529.9 528 531.3 527.7 531.6C526.8 532.5 520 528 520 526.6C520 523.2 523.8 524.3 526.6 528.6ZM309.2 533.6C325.2 544.5 360 572.2 360 574.1C360 575.6 359 575.2 351.1 570.6C325.6 556 302.1 544.4 279.4 535.5C272.9 532.9 267.3 530.6 267 530.3C265.4 528.8 271.5 528 285.2 528H300.9L309.2 533.6ZM484.8 529.7C484.3 532.2 482 532.5 482 530.1C482 528.9 482.6 528 483.6 528C484.5 528 485 528.7 484.8 529.7ZM666.8 538.7C671.7 556.8 673.1 574.3 670.1 577.3C669 578.4 668.4 575.3 667.5 563C667.1 558.3 666 549.8 664.9 544C663.9 538.2 663 532.7 663 531.7C663 527.8 664.9 531.3 666.8 538.7ZM752.9 533.9C753.5 534.9 753.6 536.1 753.2 536.5C751.8 537.9 731.7 547 731.1 546.5C729.9 545.3 733 542.3 740.5 537.2C749 531.6 751.4 531 752.9 533.9ZM256.7 536.4C282.5 543.9 312.2 556.8 335.7 570.8C353.3 581.2 357.1 585 346 580.8C313.2 568.5 284.5 560.4 258.4 555.8C247.1 553.8 242.1 553.5 217.2 553.5C201.7 553.5 189 553.2 189 552.8C189 551.8 202.2 545.2 211.5 541.5C221.3 537.5 236.8 533.1 241.2 533.1C243.2 533 250.2 534.6 256.7 536.4ZM161 534.5C161 534.8 155.7 538.9 149.3 543.6C134.7 554.4 123.4 564 109.6 577.1C103.7 582.7 98.7 587 98.3 586.6C95.9 584.2 122 556.2 135 547.3C147.2 539 161 532.2 161 534.5ZM345 535.6C351.6 537.1 352.3 537.5 358.6 544.3C365.8 552 386 578.4 386 580C386 582.2 384 580.5 373 569.4C366.7 563 356.1 553.1 349.5 547.2C338.9 537.9 335.4 534 337.5 534C337.8 534 341.2 534.7 345 535.6ZM492.5 536.5C492.5 538.5 489.5 540.8 488.4 539.7C487.3 538.6 489.9 533.8 491.3 534.3C491.9 534.5 492.5 535.5 492.5 536.5ZM782.9 545.9C784.2 548.3 783.4 549 779.3 549C776.8 549 776 548.6 776 547.2C776 546.2 776.3 545 776.7 544.7C778 543.3 782 544.1 782.9 545.9ZM521.4 556.1C529.8 561.9 533 564.8 533 566.2C533 568.1 532.5 568.2 527.7 567.7C518 566.7 503.7 560.9 502.3 557.4C501.7 555.7 506.7 548 508.5 548C509.2 548 515 551.6 521.4 556.1ZM395.6 551.5C398 553 408.9 576.4 409.8 581.9C410.3 585.2 410.2 585.4 408.6 584.1C407.6 583.3 405.3 579.7 403.5 576.1C401.7 572.5 397.5 565.2 394.2 560C390.9 554.8 388.4 550.1 388.7 549.7C389.3 548.8 392.6 549.7 395.6 551.5ZM494 551C494 551.5 493.3 552 492.4 552C491.6 552 491.2 551.5 491.5 551C491.8 550.4 492.5 550 493.1 550C493.6 550 494 550.4 494 551ZM739 555C739 555.5 738.3 556 737.4 556C736.6 556 736.2 555.5 736.5 555C736.8 554.4 737.5 554 738.1 554C738.6 554 739 554.4 739 555ZM483 558.6C483 560.2 477.1 563.2 475.6 562.3C475.1 561.9 476.1 560.4 477.9 558.8C481.1 555.9 483 555.8 483 558.6ZM783 558C783 559.2 780.2 560.5 779.4 559.7C778.5 558.8 780 557 781.6 557C782.4 557 783 557.5 783 558ZM416.8 561.4C426 566.1 425.8 565.5 426.2 582.7C426.4 591.1 426.1 598.1 425.6 598.2C425.1 598.4 423.3 594.4 421.5 589.5C419.8 584.5 416.5 576 414.2 570.4C411.9 564.9 410 560.1 410 559.7C410 558.5 412 559 416.8 561.4ZM763 561C763 561.5 762.6 562 762 562C761.5 562 761 561.5 761 561C761 560.4 761.5 560 762 560C762.6 560 763 560.4 763 561ZM503.2 583.5C511.5 617.2 510.7 618.9 500.6 589.1C493 566.8 492.5 563.4 497 564.2C498.1 564.4 499.8 569.7 503.2 583.5ZM519.8 576.2L532.2 582.3L531.6 598.9C531.2 608 530.7 618.1 530.4 621.3C529.8 626.7 529.6 627.1 527.6 626.5C526.5 626.1 524 625.6 522.2 625.3C520 624.9 518.5 624 518 622.6C516.8 619.9 506 573.8 506 571.6C506 570.7 506.3 570 506.7 570C507.1 570 513 572.8 519.8 576.2ZM493.4 585.8C503.6 617 504.1 620 499.1 620C498.1 620 496.5 620.7 495.4 621.5C494.4 622.3 493 623 492.5 623C491.9 623 489.7 619.7 487.5 615.7C485.4 611.8 481 604 477.8 598.6C474.6 593.1 472 588.1 472.2 587.3C472.4 586.6 475.9 583.1 480 579.6C485.2 575.2 487.9 573.5 488.7 574.2C489.3 574.7 491.5 580 493.4 585.8ZM442.7 578.8L447 582.5L442.9 594.2C440.6 600.7 438.4 606 438 606C436.7 606 436 600 436 588C436 577.2 436.3 574.9 437.9 575C438.2 575 440.4 576.7 442.7 578.8ZM840.8 581.1C845.9 582.9 849.8 591 844.8 589.4C838.5 587.5 834 583.4 835.5 581C836.3 579.7 837 579.8 840.8 581.1ZM543.4 585.6C544.3 585.9 545 587 545 588C545 590.3 538.1 625.3 537.5 625.8C537.2 626.1 536.8 625.6 536.4 624.7C535.8 623 537.8 587.1 538.6 585.8C539.2 584.8 541.2 584.8 543.4 585.6ZM464 599.1C472.6 609 479.9 619.1 486.5 630.1C493.4 641.4 494 642.8 495 651C495.5 654.6 497.3 660.5 498.9 664.2C500.6 667.9 502 672.3 502 673.9C502 675.4 503.1 679.3 504.5 682.4C505.9 685.5 507 688.7 507 689.5C507 693.3 503.7 690.1 496.8 679.7C486.4 664.1 474.6 649.6 460.8 635.3C453 627.3 449 622.4 449 621C449 617.5 453 599 454.5 595.3C455.3 593.5 456.3 592 456.9 592C457.5 592 460.7 595.2 464 599.1ZM848.5 603.1C851.5 604.2 854.5 606 855 607C856.1 609.1 856.4 614 855.4 614C854.3 614 841 603.9 841 603.1C841 602.3 842.1 601 842.6 601C842.8 601 845.4 601.9 848.5 603.1ZM847.8 621.9C849.8 623 853.4 625.2 855.8 626.9C859.5 629.7 860 630.5 860 634C860 636.2 859.7 638 859.3 638C858.8 638 854.7 634.5 850.1 630.2C844.8 625.3 841.9 621.9 842.4 621.2C843.3 619.6 843.4 619.7 847.8 621.9ZM858.8 655C860.5 656.6 860.8 657.7 860.3 660.3C859.6 664.1 859.4 664.4 858.1 663.6C857.2 663 853 654.6 853 653.4C853 652.2 857 653.3 858.8 655Z" fill="black"/>
</svg>
