<?xml version="1.0" standalone="no"?>
<!DOCTYPE svg PUBLIC "-//W3C//DTD SVG 20010904//EN"
 "http://www.w3.org/TR/2001/REC-SVG-20010904/DTD/svg10.dtd">
<svg version="1.0" xmlns="http://www.w3.org/2000/svg"
 width="1060.000000pt" height="1060.000000pt" viewBox="0 0 1060.000000 1060.000000"
 preserveAspectRatio="xMidYMid meet">
<metadata>
Created by potrace 1.11, written by Peter Selinger 2001-2013
</metadata>
<g transform="translate(0.000000,1060.000000) scale(0.100000,-0.100000)"
fill="#000000" stroke="none">
<path d="M5887 10523 c-82 -135 -177 -373 -212 -533 -38 -168 -71 -341 -80
-415 -3 -22 -7 -51 -10 -65 -2 -14 -7 -56 -10 -95 -4 -38 -8 -77 -10 -85 -2
-8 -7 -60 -10 -115 -4 -55 -8 -107 -10 -115 -2 -8 -7 -67 -11 -130 -4 -63 -8
-128 -10 -145 -1 -16 -3 -45 -3 -64 -1 -19 -3 -32 -5 -30 -23 23 -40 657 -23
874 5 78 14 150 32 280 18 123 76 344 136 518 53 154 58 174 32 137 -71 -100
-137 -250 -174 -392 -22 -88 -22 -87 -35 -158 -4 -25 -8 -47 -9 -50 -1 -3 -5
-36 -9 -75 -5 -38 -9 -77 -11 -86 -16 -82 -23 -345 -25 -875 -1 -204 -6 -377
-11 -385 -6 -11 -9 -8 -10 11 0 14 -2 39 -4 55 -2 17 -6 48 -9 70 -3 22 -8 72
-12 110 -3 39 -7 86 -9 105 -25 239 -25 1001 0 1140 2 14 6 52 9 85 11 130
-43 -95 -69 -290 -3 -22 -7 -53 -10 -70 -25 -175 -25 -692 0 -894 2 -18 7 -67
11 -109 3 -41 8 -84 10 -95 8 -42 16 -172 10 -166 -7 7 -40 172 -51 249 -3 25
-8 56 -10 70 -6 31 -12 86 -20 170 -4 36 -8 81 -10 100 -13 106 -20 319 -20
587 0 352 -7 379 -32 113 -15 -158 -7 -676 11 -790 2 -14 7 -56 10 -93 4 -37
8 -82 11 -100 2 -18 7 -56 10 -86 3 -30 8 -64 10 -75 2 -12 7 -41 10 -66 5
-43 8 -66 20 -135 3 -16 8 -46 11 -65 3 -19 7 -41 9 -48 3 -7 7 -40 10 -75 17
-201 -103 306 -180 763 -14 80 -34 236 -50 385 -3 33 -10 76 -15 95 -13 48 -1
-221 15 -375 8 -77 23 -190 29 -220 2 -11 7 -40 10 -65 3 -25 8 -56 11 -70 3
-14 7 -38 10 -55 2 -16 13 -75 24 -130 11 -55 22 -111 25 -125 2 -14 16 -79
31 -145 47 -213 59 -275 53 -281 -9 -8 -126 282 -143 356 -2 8 -16 55 -30 103
-42 143 -85 345 -109 512 -3 22 -8 49 -10 60 -3 11 -5 32 -5 48 -1 15 -5 27
-9 27 -9 0 -9 -25 2 -125 12 -115 22 -177 55 -355 25 -131 24 -128 62 -284 17
-71 32 -147 34 -170 2 -22 15 -85 29 -140 26 -99 33 -166 18 -166 -5 0 -16 17
-25 38 -9 20 -32 73 -52 117 -50 111 -127 347 -159 490 -35 151 -47 188 -40
120 8 -75 19 -135 59 -325 18 -84 76 -280 156 -528 54 -166 60 -216 34 -277
l-16 -40 -25 30 c-56 69 -123 259 -183 520 -36 156 -83 266 -135 319 l-45 47
25 -73 c64 -186 85 -310 86 -490 0 -132 -9 -187 -58 -343 -30 -92 -81 -205
-93 -205 -4 0 -9 66 -10 148 -2 162 -8 283 -17 352 -3 25 -8 61 -10 80 -2 19
-6 46 -9 60 -3 14 -8 39 -11 55 -21 121 -98 325 -163 433 -57 94 -131 195
-137 189 -3 -2 20 -68 51 -145 56 -142 107 -315 125 -427 5 -33 13 -71 16 -85
9 -36 13 -497 5 -550 -9 -66 -24 -30 -36 90 -3 30 -7 66 -10 80 -3 13 -7 42
-11 65 -3 22 -21 99 -39 171 -111 434 -332 769 -679 1032 -38 29 -71 50 -74
48 -2 -3 16 -27 41 -53 155 -164 285 -343 380 -525 65 -123 139 -314 162 -418
47 -207 65 -340 47 -340 -5 0 -9 6 -10 13 -4 59 -85 308 -143 439 -108 245
-237 414 -499 652 -86 77 -410 292 -410 271 0 -4 21 -26 47 -48 86 -76 309
-301 362 -366 91 -111 181 -253 245 -386 99 -208 233 -545 216 -545 -10 0 -30
29 -264 381 -220 334 -292 426 -456 587 -250 246 -576 415 -949 493 -24 5 -46
7 -48 5 -2 -2 20 -14 49 -27 184 -82 424 -209 520 -276 26 -18 52 -33 58 -33
5 0 10 -3 10 -7 0 -5 12 -15 28 -24 51 -29 187 -144 266 -224 84 -86 137 -152
206 -255 48 -72 238 -408 258 -455 11 -27 9 -26 -30 15 -24 25 -79 86 -123
135 -99 112 -337 351 -428 430 -281 243 -609 436 -952 560 -104 38 -364 109
-371 102 -2 -2 53 -28 123 -57 414 -172 813 -428 1107 -709 176 -168 495 -491
507 -512 10 -20 10 -20 -18 -2 -15 10 -107 77 -203 149 -216 162 -534 378
-660 447 -19 11 -42 25 -50 32 -8 7 -20 14 -25 16 -6 2 -70 37 -143 78 -256
141 -520 258 -772 341 -144 48 -359 105 -366 97 -2 -2 89 -41 203 -86 428
-170 812 -379 1208 -654 103 -72 316 -227 325 -237 3 -3 43 -35 90 -72 100
-77 203 -172 177 -164 -9 3 -106 63 -214 132 -109 70 -211 135 -228 144 -16
10 -84 51 -150 90 -265 160 -641 357 -860 450 -55 23 -118 50 -140 60 -152 67
-642 212 -608 180 4 -5 35 -17 68 -28 382 -126 813 -333 1225 -590 251 -156
700 -466 700 -482 0 -13 -12 -7 -205 88 -462 229 -746 346 -1063 436 -139 40
-371 96 -457 110 -16 3 -46 8 -65 11 -66 12 -165 22 -169 19 -8 -7 2 -10 204
-69 190 -55 461 -143 607 -198 272 -103 918 -418 918 -449 0 -4 -10 -4 -22 1
-29 11 -191 78 -243 100 -136 59 -375 144 -560 200 -106 32 -303 82 -395 100
-30 6 -66 14 -80 17 -25 5 -44 8 -123 19 -23 3 -49 8 -57 10 -27 7 -132 16
-340 29 -100 7 -63 -4 165 -47 291 -55 572 -136 928 -266 152 -56 448 -204
434 -217 -2 -3 -71 20 -153 50 -82 29 -187 65 -234 79 -96 29 -200 60 -215 63
-5 1 -37 9 -70 17 -69 18 -191 44 -250 52 -22 4 -57 11 -77 16 -20 5 -40 9
-45 8 -4 -2 -29 1 -54 5 -70 12 -111 14 -394 20 -245 5 -296 -3 -121 -19 39
-3 82 -8 96 -9 14 -2 50 -6 80 -10 30 -4 66 -9 80 -12 14 -2 43 -6 65 -9 119
-12 372 -64 556 -114 172 -47 447 -154 464 -181 8 -13 -1 -12 -140 14 -292 55
-603 74 -895 53 -166 -11 -408 -51 -425 -69 -7 -7 -7 -9 0 -5 9 4 39 9 150 22
194 23 737 23 774 0 4 -2 25 -6 47 -9 54 -6 220 -42 274 -59 l45 -14 -35 -6
c-19 -4 -86 -9 -149 -12 -63 -4 -130 -8 -148 -11 -18 -2 -48 -6 -65 -8 -187
-25 -449 -106 -631 -196 -109 -54 -308 -178 -322 -200 -6 -10 44 6 120 40 108
48 403 147 555 186 30 8 62 16 70 18 100 27 200 41 200 28 0 -5 -15 -15 -32
-23 -202 -80 -549 -276 -635 -358 -27 -25 -31 -41 -5 -19 16 15 115 77 192
121 51 29 256 131 325 162 59 26 281 115 300 119 6 2 17 6 25 9 38 17 160 55
160 51 0 -3 8 0 18 5 26 14 81 20 87 11 3 -5 -26 -26 -65 -47 -235 -125 -466
-263 -490 -293 -3 -3 -32 -27 -65 -52 -58 -44 -202 -187 -220 -218 -5 -8 7 -1
27 15 310 257 458 354 773 511 153 77 233 109 242 100 8 -8 18 -1 -127 -91
-219 -138 -411 -298 -516 -430 -21 -27 -42 -52 -45 -55 -11 -9 -30 -50 -23
-50 4 0 46 38 93 84 176 172 346 307 503 401 308 183 414 218 215 69 -51 -38
-123 -96 -162 -129 -102 -87 -274 -264 -292 -300 -11 -20 9 -5 63 50 203 205
397 340 634 438 140 59 143 41 9 -56 -190 -136 -290 -238 -392 -399 -27 -43
-6 -32 38 19 52 61 159 168 215 216 68 58 278 197 338 224 61 27 62 27 62 11
-1 -7 -28 -33 -61 -58 -59 -44 -121 -105 -187 -185 -35 -43 -108 -182 -100
-190 3 -3 24 19 46 49 146 193 478 429 516 367 5 -8 -11 -26 -95 -103 -48 -45
-102 -115 -123 -162 -19 -41 -33 -116 -22 -116 3 0 23 26 43 58 88 137 288
305 353 295 40 -6 47 -20 26 -56 -76 -129 -96 -172 -96 -211 l0 -41 19 24 19
25 57 -35 c32 -19 64 -44 72 -56 9 -13 23 -23 32 -23 37 0 215 -137 345 -266
132 -131 307 -366 343 -460 6 -17 5 -18 -11 -4 -10 8 -46 48 -80 90 -97 119
-106 130 -196 220 -177 179 -348 291 -530 348 -36 11 -74 24 -85 28 -42 15 9
-23 75 -57 102 -52 232 -132 300 -184 108 -83 292 -276 278 -291 -3 -2 -41 22
-84 54 -44 32 -102 72 -129 88 -28 16 -63 37 -80 47 -76 45 -247 122 -435 195
-254 99 -250 98 -250 77 0 -24 17 -37 90 -69 115 -51 272 -135 339 -183 117
-83 411 -393 373 -393 -5 0 -37 18 -71 40 -34 22 -65 40 -68 40 -4 0 -14 6
-22 14 -21 19 -311 167 -311 160 0 -4 -6 -2 -12 4 -42 34 -418 157 -573 187
-122 24 -284 39 -269 26 5 -4 72 -29 149 -56 254 -86 528 -208 671 -300 30
-19 58 -35 62 -35 13 -1 66 -49 60 -55 -3 -3 -48 8 -99 24 -111 35 -236 67
-299 76 -24 4 -47 8 -50 10 -6 3 -102 13 -194 20 -33 3 -78 7 -100 9 -23 3
-68 8 -101 11 -33 3 -80 8 -105 11 -82 8 -175 13 -160 7 8 -3 33 -14 55 -23
22 -10 67 -23 100 -29 112 -21 401 -122 569 -201 112 -51 119 -64 30 -55 -38
3 -78 8 -89 10 -11 2 -42 7 -70 10 -27 3 -126 21 -220 40 -93 19 -188 37 -210
40 -22 3 -53 7 -70 10 -103 16 -221 28 -215 22 6 -6 120 -37 160 -43 68 -12
235 -61 233 -70 -2 -8 -44 -19 -144 -39 -14 -2 -108 -25 -210 -49 -101 -25
-199 -47 -217 -50 -41 -6 -51 -14 -32 -26 18 -11 24 -6 -90 -75 -153 -93 -158
-107 -18 -50 107 43 249 93 308 109 65 17 357 7 420 -16 l32 -11 -29 -13 c-15
-7 -72 -24 -125 -39 -186 -49 -550 -176 -642 -224 -100 -51 -191 -116 -246
-177 -58 -63 -57 -69 4 -35 31 18 59 31 62 28 5 -4 -53 -72 -116 -136 -37 -37
-101 -115 -115 -141 -10 -17 18 6 131 104 43 37 99 82 124 99 25 17 47 33 50
37 5 6 81 56 156 103 90 56 303 156 369 172 75 19 316 29 390 16 l40 -7 -35
-22 c-19 -12 -44 -23 -55 -23 -11 -1 -29 -3 -40 -4 -47 -5 -156 -15 -235 -21
-47 -3 -96 -7 -110 -9 -14 -2 -31 -4 -38 -4 -23 -2 -2 -21 23 -21 53 0 31 -22
-72 -71 -325 -155 -515 -350 -605 -617 -15 -47 -35 -96 -43 -109 -22 -33 -14
-29 36 18 147 137 702 510 725 486 7 -7 -137 -148 -182 -179 -18 -13 -34 -28
-34 -34 0 -7 -16 -36 -37 -65 -89 -131 -131 -199 -165 -264 -44 -84 -108 -225
-103 -225 2 0 48 60 104 134 197 262 391 450 499 482 107 33 623 39 777 10 11
-2 40 -7 65 -11 25 -3 59 -9 75 -11 211 -34 775 -215 775 -250 0 -6 -93 1
-140 11 -21 4 -70 12 -180 30 -105 16 -258 33 -385 42 -197 14 -594 8 -720
-12 -16 -2 -61 -9 -100 -14 -110 -17 -124 -20 -225 -48 -100 -28 -244 -81
-222 -82 7 -1 68 12 135 28 285 68 425 84 747 84 102 0 239 -3 305 -7 129 -9
130 -9 220 -21 33 -5 63 -8 66 -7 11 2 321 -56 327 -62 6 -7 10 -7 -334 -11
-467 -5 -624 -18 -853 -67 -266 -57 -453 -152 -562 -288 -37 -45 -82 -130 -75
-138 3 -2 26 16 52 40 26 23 59 53 72 65 42 39 133 96 223 140 150 74 333 124
519 141 137 13 582 4 685 -13 71 -12 81 -16 64 -26 -9 -5 -39 -11 -65 -14 -91
-10 -168 -20 -234 -30 -14 -3 -70 -11 -125 -20 -55 -8 -111 -17 -125 -20 -14
-3 -61 -12 -105 -21 -361 -71 -643 -183 -786 -311 -40 -36 -119 -146 -119
-165 0 -13 29 6 75 48 22 20 59 49 82 65 53 37 215 119 235 119 7 0 18 4 23 8
23 21 271 88 395 107 25 4 54 9 65 11 18 4 110 17 210 29 93 12 250 16 235 5
-16 -11 -66 -25 -115 -34 -81 -14 -224 -49 -355 -88 -459 -136 -743 -321 -814
-531 -19 -58 -31 -147 -20 -147 5 0 30 33 56 73 148 228 428 396 908 542 30
10 65 19 77 21 12 2 33 8 45 13 13 5 26 9 31 9 4 1 24 4 45 8 20 4 45 8 55 10
27 5 20 -10 -10 -23 -16 -6 -89 -37 -163 -68 -221 -93 -331 -151 -495 -260
-186 -124 -327 -269 -395 -409 -33 -67 -80 -216 -73 -229 3 -5 24 26 48 67 81
143 179 261 316 380 155 135 583 375 767 431 33 10 27 -8 -10 -29 -88 -51
-297 -196 -393 -273 -379 -304 -583 -626 -601 -947 l-4 -81 17 35 c9 19 51
107 94 195 145 301 329 541 570 742 135 111 320 238 339 231 5 -2 -40 -61
-101 -133 -248 -294 -376 -532 -454 -840 -60 -241 -56 -267 15 -88 49 125 139
309 200 409 41 66 119 183 130 194 3 3 18 21 33 40 49 61 170 180 183 180 8 0
-10 -54 -45 -142 -67 -166 -95 -270 -114 -423 -14 -106 -19 -439 -9 -519 6
-50 17 -30 27 48 4 32 8 68 11 80 4 22 21 133 30 196 2 19 14 78 25 130 11 52
22 106 24 121 12 66 71 253 82 256 16 6 21 -13 38 -172 21 -182 79 -503 95
-519 7 -7 9 0 5 24 -9 61 -15 234 -22 615 -5 360 -5 372 15 410 11 22 27 49
35 60 15 20 16 20 25 -5 5 -14 13 -56 16 -95 10 -94 13 -118 35 -245 16 -92
60 -271 71 -289 7 -12 9 -9 9 14 0 103 12 547 15 580 2 22 7 80 11 130 12 168
22 210 56 241 17 16 22 16 29 4 6 -8 10 -26 11 -40 0 -14 2 -32 3 -40 2 -8 6
-51 10 -95 9 -122 16 -185 26 -245 5 -30 12 -71 15 -90 10 -60 54 -254 69
-300 l14 -45 2 35 c1 19 3 157 5 305 5 409 18 627 39 677 10 22 86 52 99 39
19 -19 97 -372 122 -551 3 -25 8 -52 10 -60 5 -20 12 -71 20 -152 4 -38 11
-68 16 -68 5 0 9 3 9 8 1 4 4 54 7 112 15 218 7 713 -12 761 -8 22 18 41 63
46 l38 4 26 -68 c46 -120 138 -437 162 -558 1 -5 11 -45 21 -89 17 -70 20 -75
27 -50 8 29 3 417 -6 464 -3 14 -7 52 -10 85 -4 33 -11 89 -16 125 -16 110
-14 113 72 90 32 -9 39 -17 52 -58 16 -49 63 -262 71 -321 2 -18 6 -41 9 -50
3 -9 7 -41 11 -71 3 -30 7 -64 10 -75 2 -11 4 -26 4 -34 1 -16 14 -7 17 12 1
7 4 28 7 47 5 33 16 144 22 220 2 19 4 78 5 131 1 53 6 102 9 108 17 26 201
-102 326 -226 129 -128 275 -324 406 -546 89 -149 105 -186 117 -262 6 -33 22
-93 36 -134 14 -41 26 -83 26 -92 0 -10 7 -39 16 -65 9 -26 17 -75 19 -108 2
-34 7 -72 12 -86 6 -14 8 -77 7 -140 -3 -93 0 -126 16 -175 29 -90 62 -243 65
-306 2 -31 8 -72 13 -90 5 -19 7 -47 6 -64 -14 -128 -11 -213 8 -270 10 -33
22 -78 24 -100 3 -22 11 -67 19 -100 7 -33 14 -87 15 -120 0 -33 3 -79 6 -103
2 -24 -1 -53 -7 -65 -21 -37 -15 -185 9 -256 12 -35 22 -80 22 -100 0 -20 7
-58 15 -85 11 -37 12 -58 5 -87 -7 -27 -7 -50 2 -82 10 -38 9 -55 -5 -104 -27
-96 -30 -176 -8 -231 10 -26 22 -76 26 -111 4 -36 13 -84 20 -108 11 -38 11
-51 0 -84 -11 -29 -11 -46 -3 -69 10 -31 7 -91 -6 -122 -8 -17 12 -18 330 -18
187 0 334 4 328 8 -30 21 -42 53 -32 90 22 82 21 99 -8 151 -27 47 -28 53 -15
83 7 18 18 50 24 70 10 35 9 40 -19 70 -25 28 -29 39 -25 68 11 67 -4 168 -28
194 -24 25 -24 32 -5 154 4 26 -1 43 -21 72 -27 40 -29 85 -5 130 17 31 11 61
-17 99 -16 20 -27 38 -26 41 17 57 3 166 -29 218 -16 27 -19 45 -15 109 4 66
1 81 -19 117 -28 49 -29 59 -8 123 16 50 16 50 -11 92 -22 33 -28 55 -31 111
-5 95 -9 115 -33 154 -17 26 -21 50 -21 112 0 50 -6 88 -15 104 -32 55 -34 67
-23 132 11 60 10 67 -11 102 -14 21 -24 58 -27 89 -7 88 -14 119 -38 172 -18
38 -24 68 -25 123 0 59 -5 79 -23 105 -22 31 -24 51 -17 142 3 41 -1 64 -17
79 -18 19 -31 98 -29 177 5 172 133 520 264 722 64 97 78 115 191 227 286 285
745 463 1179 455 173 -3 300 -27 437 -81 62 -25 63 -26 70 -71 6 -43 -1 -245
-10 -291 -3 -12 -1 -22 3 -22 10 0 42 76 76 180 36 110 39 114 79 93 43 -22
172 -112 188 -130 13 -16 14 -177 2 -286 -2 -27 -1 -46 4 -43 5 3 28 55 51
116 l43 110 26 -19 c31 -22 104 -100 128 -136 17 -26 15 -61 -12 -188 -8 -39
-12 -72 -10 -74 2 -3 24 27 49 65 49 76 57 84 74 74 14 -9 101 -159 143 -246
40 -85 43 -124 15 -200 -13 -33 -26 -70 -30 -81 -4 -11 17 6 47 39 l53 58 25
-43 c37 -67 108 -199 132 -247 33 -64 39 -50 13 31 -101 309 -116 363 -110
397 10 53 46 130 61 130 7 0 26 -17 41 -37 15 -21 36 -46 45 -57 9 -10 67 -92
128 -183 62 -90 114 -162 116 -160 17 16 -96 235 -204 395 -114 169 -122 182
-122 229 0 23 5 45 10 48 18 11 143 -133 315 -363 52 -69 71 -87 73 -73 9 58
-196 383 -317 501 -53 52 -88 106 -100 154 -20 80 1 81 99 1 54 -44 183 -181
247 -262 67 -85 68 -85 71 -54 4 36 -21 83 -91 177 -55 71 -194 214 -262 268
-118 93 -172 160 -141 172 8 3 38 -7 67 -22 54 -26 295 -184 376 -245 76 -58
59 -21 -33 69 -115 114 -159 149 -275 227 -112 74 -254 147 -390 199 -94 36
-167 86 -123 86 105 -1 518 -171 681 -281 125 -83 89 -43 -62 70 -228 171
-493 287 -724 316 -63 8 -86 12 -111 20 -23 7 -64 71 -55 85 9 15 280 5 384
-14 46 -9 111 -23 145 -32 33 -8 72 -18 86 -20 14 -3 90 -27 170 -54 79 -27
145 -48 147 -47 1 2 -38 27 -87 56 -105 62 -286 137 -420 174 -93 26 -107 29
-200 42 -83 12 -342 7 -429 -9 -46 -9 -87 -13 -91 -11 -13 8 -29 64 -21 70 12
7 138 36 181 42 19 3 62 8 95 13 94 12 345 5 500 -15 40 -5 184 -25 214 -30
42 -7 9 12 -59 33 -238 77 -409 106 -625 106 -184 0 -274 -14 -427 -65 -40
-13 -81 -18 -145 -17 -77 1 -94 -2 -140 -25 -90 -45 -143 -110 -202 -246 -42
-99 -80 -151 -92 -129 -4 7 -10 33 -14 58 -3 25 -9 58 -11 74 -8 46 95 222
201 346 58 68 166 170 229 218 l63 48 149 -2 c220 -2 258 -5 383 -25 320 -53
641 -178 920 -359 51 -34 95 -59 98 -57 2 3 -33 39 -79 81 -133 124 -352 265
-538 347 -52 23 -102 48 -110 56 -13 13 -10 14 30 8 157 -23 415 -90 680 -174
85 -28 156 -48 158 -46 5 5 -151 158 -194 191 -22 16 -45 35 -53 42 -7 7 -59
35 -115 62 -136 66 -238 95 -476 135 -79 14 -347 15 -425 2 -201 -32 -232 2
-50 57 46 13 65 18 135 31 106 20 188 25 267 14 32 -4 80 -10 107 -14 150 -19
430 -92 616 -162 133 -49 120 -31 -35 47 -55 28 -113 59 -130 71 l-30 20 30
-4 c17 -3 42 -8 58 -12 15 -4 27 -5 27 -1 0 21 -219 98 -326 115 -90 14 -259
22 -554 26 -129 2 -255 4 -280 5 l-45 2 71 33 c39 18 114 48 165 65 94 33 95
33 279 31 102 -1 213 -3 248 -4 34 -2 62 0 62 5 0 4 -7 9 -15 9 -8 1 -18 2
-22 3 -5 1 -44 10 -88 20 -112 24 -110 23 -95 42 11 13 9 14 -16 10 -16 -3
-81 -8 -144 -11 -236 -12 -287 -15 -350 -21 -161 -16 -159 -7 15 82 74 38 145
77 157 86 21 16 19 16 -27 -1 -115 -42 -270 -108 -420 -181 -88 -42 -178 -83
-200 -90 -22 -7 -86 -32 -142 -56 -57 -24 -108 -44 -115 -44 -24 0 96 101 237
201 125 88 321 199 425 239 43 17 118 70 99 70 -8 0 -52 -14 -99 -31 -47 -17
-164 -59 -260 -93 -207 -74 -338 -130 -446 -192 -43 -25 -103 -59 -131 -76
-29 -16 -53 -25 -53 -20 0 21 171 184 321 307 80 66 317 225 335 225 7 0 17 6
21 13 4 7 25 23 46 36 51 31 41 36 -23 12 -58 -22 -70 -19 -110 24 -31 34
-141 121 -195 156 -22 14 -80 42 -128 64 -48 21 -91 43 -94 48 -12 20 117 -3
238 -43 144 -47 308 -125 429 -204 98 -64 123 -71 65 -19 -113 101 -274 193
-467 264 -64 23 -115 47 -112 51 16 26 267 -19 451 -81 111 -36 346 -147 432
-203 19 -12 32 -18 28 -12 -6 11 -110 82 -178 122 -101 60 -358 176 -456 206
-11 4 -27 14 -34 23 -12 14 -8 15 41 10 104 -10 371 -90 550 -164 103 -42 301
-141 387 -193 118 -72 60 -13 -77 78 -134 89 -300 165 -516 237 -109 37 -203
71 -208 76 -46 44 609 -105 789 -180 11 -5 63 -26 115 -46 52 -21 130 -55 172
-77 93 -45 104 -48 51 -9 -69 50 -184 108 -313 159 -159 63 -256 91 -549 157
-80 17 -101 34 -45 36 97 4 275 -4 364 -16 19 -2 58 -7 85 -11 48 -6 72 -9
133 -18 168 -25 406 -82 530 -127 63 -23 69 -17 10 10 -132 59 -345 118 -558
155 -226 39 -204 49 102 49 310 1 413 -6 612 -39 49 -8 91 -12 94 -10 7 8 -88
44 -203 76 -221 62 -350 78 -600 75 -115 -2 -223 -5 -240 -8 -82 -12 -129 -21
-228 -44 -60 -14 -110 -23 -113 -20 -9 8 89 65 211 122 232 110 548 202 790
231 22 2 49 6 60 8 11 3 32 5 48 5 15 1 27 5 27 10 0 5 -12 8 -27 6 -16 -2
-57 -6 -93 -10 -134 -11 -178 -17 -300 -41 -267 -53 -584 -159 -793 -265 -32
-16 -69 -34 -83 -39 -22 -9 -23 -8 -15 8 20 38 209 177 370 273 91 54 275 146
461 231 30 14 137 58 238 98 101 40 181 74 179 76 -6 6 -237 -53 -347 -89
-348 -115 -665 -276 -1025 -521 -76 -52 -141 -93 -144 -90 -9 9 130 136 269
247 210 167 518 357 823 507 113 55 209 100 214 100 5 0 18 7 29 15 32 24
-135 -30 -316 -102 -147 -59 -343 -152 -485 -231 -215 -119 -430 -267 -755
-518 -82 -63 -91 -69 -84 -51 5 14 232 234 329 318 291 254 713 552 1038 733
38 21 67 40 64 42 -12 13 -357 -147 -525 -243 -175 -100 -492 -318 -613 -421
-13 -11 -44 -37 -69 -57 -25 -21 -72 -60 -104 -89 -32 -28 -68 -59 -80 -69
-12 -10 -63 -58 -115 -105 -123 -114 -132 -122 -143 -122 -8 0 73 124 92 140
3 3 37 43 75 90 83 102 234 278 291 340 23 25 55 59 69 75 288 318 666 646
957 831 56 35 96 64 88 64 -15 0 -168 -81 -228 -121 -24 -16 -46 -29 -49 -29
-17 0 -357 -249 -457 -335 -6 -5 -41 -35 -76 -65 -93 -78 -160 -142 -354 -336
-243 -243 -315 -319 -511 -543 -73 -83 -115 -125 -119 -120 -10 10 258 389
363 515 14 17 33 40 41 50 153 195 444 502 629 664 41 36 79 70 85 75 43 40
230 184 324 249 165 116 139 111 -83 -17 -373 -214 -766 -560 -1155 -1013 -25
-29 -179 -220 -192 -239 -4 -5 -20 -26 -36 -45 -16 -19 -63 -81 -105 -137 -42
-56 -81 -104 -87 -108 -6 -3 -2 16 9 42 21 55 183 363 212 405 11 14 19 28 19
31 0 13 163 268 251 392 169 239 433 505 707 710 28 21 52 40 52 42 0 5 -47
-16 -105 -47 -283 -153 -630 -459 -835 -735 -78 -105 -150 -213 -150 -225 0
-5 -4 -10 -10 -10 -5 0 -10 -4 -10 -9 0 -5 -20 -43 -44 -84 -38 -63 -177 -342
-242 -484 -19 -42 -40 -59 -31 -25 3 9 8 35 12 57 13 75 16 89 51 235 50 211
80 303 134 416 103 215 258 413 496 634 32 30 86 77 119 105 33 27 62 52 65
55 3 3 18 16 34 28 24 18 26 22 9 22 -10 0 -23 -4 -29 -9 -5 -5 -31 -22 -59
-37 -27 -15 -66 -36 -85 -47 -49 -27 -166 -109 -220 -154 -121 -100 -325 -334
-381 -436 -27 -49 -76 -153 -114 -245 -65 -155 -62 -152 -121 -117 -59 34 -66
43 -59 75 14 58 78 220 89 221 6 1 25 1 41 1 l30 -1 -28 23 -29 23 21 42 c12
22 28 41 36 41 8 0 34 -11 59 -24 26 -14 46 -22 46 -20 0 3 -18 28 -40 56 -23
28 -39 57 -36 63 2 7 34 61 70 119 36 58 63 106 60 106 -3 0 -47 -43 -99 -97
l-93 -96 -49 31 c-96 62 -162 85 -251 88 -67 3 -95 -1 -148 -20 -35 -13 -67
-20 -69 -16 -6 9 83 132 120 165 113 106 259 174 380 176 37 0 38 1 15 11 -14
5 -58 7 -100 5 -169 -12 -289 -82 -445 -258 -17 -19 -39 -40 -49 -48 -16 -13
-17 -12 -10 15 21 85 162 352 214 404 3 3 23 27 45 55 61 75 165 177 178 172
7 -2 13 -27 14 -58 7 -140 26 -179 88 -179 30 0 35 3 35 23 0 13 -11 46 -25
74 -14 28 -28 62 -31 74 -2 13 -5 200 -5 414 -1 370 -6 414 -24 205 -4 -41 -8
-91 -10 -110 -2 -19 -7 -89 -10 -155 -4 -65 -9 -126 -10 -135 -2 -8 -4 -29 -4
-46 -1 -26 -11 -37 -68 -77 -167 -114 -287 -262 -423 -522 -57 -109 -101 -178
-86 -135 3 8 7 27 10 42 12 74 196 482 254 565 11 15 37 55 58 88 31 49 100
141 124 165 57 59 82 90 70 90 -28 0 -193 -152 -258 -236 -98 -128 -225 -360
-316 -578 -78 -186 -94 -199 -50 -43 92 329 282 770 433 1005 27 42 48 78 46
81 -2 2 -30 -23 -62 -55 -118 -121 -262 -377 -378 -674 -31 -80 -59 -152 -60
-160 -2 -8 -22 -69 -45 -135 -43 -124 -69 -182 -69 -155 -1 15 43 238 74 380
9 41 19 86 21 99 6 28 50 210 64 261 5 19 25 94 44 165 79 289 166 527 271
735 20 40 34 74 32 76 -8 8 -98 -145 -152 -258 -124 -262 -257 -682 -380
-1193 -25 -104 -52 -203 -59 -220 l-15 -30 5 45 c2 25 6 56 9 70 2 14 7 43 10
65 3 23 8 52 10 65 3 14 12 66 20 115 19 114 25 146 30 165 3 8 7 33 11 55 22
143 109 493 181 724 44 144 144 408 169 446 7 11 20 38 29 60 l16 40 -25 -30
c-61 -72 -169 -293 -239 -490 -100 -279 -230 -803 -284 -1140 -10 -65 -34
-169 -39 -174 -6 -5 2 202 11 289 1 19 6 71 10 115 3 44 8 94 10 110 2 17 6
50 9 75 19 162 34 277 41 320 3 14 7 43 11 65 33 233 112 531 205 769 21 55
37 101 35 103 -2 2 -20 -22 -39 -54z m581 -1990 l22 -9 -28 -45 c-29 -45 -30
-45 -88 -48 -130 -4 -222 -13 -284 -28 -36 -8 -72 -16 -80 -18 -8 -2 -35 -8
-59 -15 -23 -6 -46 -9 -49 -6 -26 26 178 132 306 160 68 14 230 20 260 9z
m156 -23 c36 -11 68 -25 71 -31 10 -15 -36 -79 -61 -85 -27 -7 -144 25 -144
39 0 16 50 97 59 97 5 0 38 -9 75 -20z m-251 -147 c7 -12 -69 -169 -84 -175
-8 -3 -39 -3 -69 1 -30 3 -133 5 -227 5 -96 -1 -173 3 -173 8 0 17 247 117
328 133 15 3 54 11 87 18 75 16 132 20 138 10z m210 -8 c33 -9 33 -13 -29
-126 -58 -109 -61 -111 -106 -99 -59 17 -64 30 -37 111 13 39 31 84 41 99 15
26 22 29 60 26 24 -3 56 -7 71 -11z m-592 -242 c20 -20 -8 -43 -53 -43 -58 0
-180 22 -171 31 25 23 203 33 224 12z m242 2 c15 -4 27 -10 27 -14 0 -20 -24
-87 -33 -93 -19 -11 -129 19 -174 48 -25 16 -30 43 -12 61 12 12 142 11 192
-2z m210 -47 l26 -13 -22 -65 c-24 -72 -41 -83 -83 -55 -23 15 -25 22 -21 58
9 72 23 98 51 93 13 -2 35 -10 49 -18z m247 -85 c58 -30 58 -29 18 -148 -28
-82 -34 -88 -67 -71 -57 30 -69 51 -61 98 5 24 11 59 14 79 12 79 19 82 96 42z
m-747 -1 c8 -7 12 -22 9 -37 -6 -32 -18 -31 -147 0 -55 14 -108 25 -117 25
-18 0 -23 11 -12 23 11 11 252 1 267 -11z m216 -38 l53 -15 -7 -37 c-15 -86
-20 -88 -116 -39 -53 27 -65 37 -67 60 -6 47 3 56 45 51 21 -2 62 -11 92 -20z
m233 -88 c7 -10 6 -24 -8 -103 -7 -38 -24 -47 -54 -26 -20 14 -21 21 -15 76 3
34 11 65 18 69 14 9 49 0 59 -16z m-487 -20 c23 -6 25 -11 25 -56 0 -44 -2
-50 -21 -50 -28 0 -160 39 -176 52 -53 43 66 80 172 54z m-229 -27 c9 -16 -10
-31 -30 -23 -13 5 -14 9 -5 20 14 17 25 18 35 3z m438 -19 c59 -22 64 -29 61
-75 -1 -16 -3 -43 -4 -60 -3 -53 -13 -59 -58 -36 -60 30 -89 69 -92 125 -3 74
5 78 93 46z m506 -40 c21 -11 41 -24 44 -29 6 -9 -48 -213 -96 -360 -31 -96
-50 -108 -43 -26 2 22 6 76 10 120 4 44 8 94 10 110 3 17 7 62 9 101 5 68 13
104 22 104 3 0 22 -9 44 -20z m-267 -70 c24 -34 9 -210 -18 -210 -22 0 -31 28
-34 102 -5 114 17 158 52 108z m-697 -1 c8 -13 -14 -29 -33 -23 -7 2 -20 6
-29 9 -8 3 -12 9 -9 15 8 14 62 13 71 -1z m164 -3 c101 -25 106 -29 108 -79 2
-25 -2 -48 -7 -51 -11 -7 -157 67 -185 94 -22 21 -15 50 11 50 10 -1 43 -7 73
-14z m-807 -161 c64 -177 63 -166 21 -243 -54 -97 -137 -221 -152 -227 -16 -6
-11 52 18 210 14 76 29 192 35 270 8 95 15 129 26 118 5 -5 28 -63 52 -128z
m1090 59 c58 -30 64 -39 66 -115 2 -71 -4 -109 -18 -109 -15 0 -73 64 -86 96
-16 38 -28 121 -20 134 9 14 21 12 58 -6z m-458 -44 c9 -8 15 -25 13 -39 -3
-22 -8 -26 -32 -24 -40 3 -60 25 -52 56 5 20 12 25 31 23 13 -2 32 -9 40 -16z
m220 -45 c28 -12 56 -29 64 -39 14 -17 54 -186 46 -194 -5 -5 -53 24 -73 45
-7 7 -40 33 -73 58 -32 26 -66 59 -74 75 -16 31 -20 72 -8 84 10 9 58 -2 118
-29z m479 -53 c15 -25 30 -250 15 -235 -17 17 -53 218 -43 235 7 10 21 10 28
0z m-698 -78 c25 -7 54 -67 69 -143 2 -12 2 -21 -1 -21 -11 0 -51 24 -96 58
-39 30 -48 42 -48 67 0 18 3 35 7 38 8 8 40 9 69 1z m503 -35 c18 -19 32 -46
36 -72 4 -23 9 -50 11 -60 11 -59 14 -147 6 -147 -18 0 -84 170 -107 278 -9
43 14 43 54 1z m-240 -86 l85 -58 33 -97 c75 -220 38 -240 -91 -48 -87 130
-147 260 -118 260 4 0 45 -26 91 -57z m1581 3 c148 -32 367 -135 478 -224 34
-27 41 -37 31 -48 -6 -8 -17 -14 -23 -14 -20 0 -213 -102 -318 -168 -164 -102
-314 -220 -463 -363 -97 -94 -134 -123 -142 -115 -10 10 90 201 166 317 61 94
138 177 245 267 58 49 149 112 160 112 7 0 31 -16 55 -36 23 -20 44 -34 46
-32 3 2 -5 23 -16 46 -30 61 -103 121 -219 182 -101 53 -102 54 -81 71 11 9
27 16 34 15 6 -1 28 -6 47 -10z m-3826 -39 c18 -13 16 -19 -34 -100 -29 -48
-59 -92 -66 -98 -16 -13 -83 4 -113 29 -21 17 -21 17 30 75 85 96 141 125 183
94z m3704 -53 c65 -22 168 -72 187 -90 20 -20 15 -26 -54 -74 -85 -57 -100
-58 -133 -11 -16 22 -28 44 -28 50 0 6 -3 11 -7 11 -11 0 -113 99 -113 110 0
12 51 28 78 23 13 -2 44 -11 70 -19z m-1679 -34 l74 -37 53 -118 c30 -65 52
-120 49 -123 -3 -3 -22 9 -43 27 -20 17 -90 74 -154 127 -125 100 -148 134
-112 161 22 16 36 12 133 -37z m-1836 1 c64 -28 235 -132 350 -213 l98 -70 53
-111 c58 -121 101 -238 94 -258 -2 -7 -23 9 -48 37 -48 53 -179 184 -223 223
-43 39 -31 11 20 -44 175 -190 344 -480 331 -565 -3 -21 -12 -12 -62 65 -73
112 -230 337 -259 372 -121 144 -281 266 -489 373 -48 24 -90 51 -93 60 -10
24 134 147 177 150 3 0 27 -9 51 -19z m3336 -67 c28 -15 51 -33 51 -40 0 -18
-54 -54 -82 -54 -23 0 -88 52 -88 70 0 10 49 50 60 50 5 0 31 -12 59 -26z
m-2015 -69 c17 -70 21 -125 8 -125 -11 0 -62 100 -62 122 0 21 21 68 30 68 4
0 15 -29 24 -65z m69 3 c33 -45 43 -78 23 -78 -16 0 -56 67 -56 95 0 22 6 19
33 -17z m987 12 c0 -5 -4 -10 -10 -10 -5 0 -10 5 -10 10 0 6 5 10 10 10 6 0
10 -4 10 -10z m1100 -35 c64 -47 60 -65 -22 -115 -45 -27 -59 -25 -85 13 -39
57 -38 63 8 96 51 37 56 38 99 6z m-275 -32 c19 -9 35 -20 35 -23 0 -3 -36
-43 -81 -89 -112 -115 -221 -288 -288 -459 -12 -30 -29 -68 -38 -85 -10 -18
-17 -35 -18 -39 0 -4 -6 -13 -14 -20 -41 -39 48 251 120 392 27 52 55 104 62
115 94 150 152 225 172 225 8 0 30 -8 50 -17z m-1929 -39 c18 -43 12 -67 -22
-82 -36 -17 -44 -15 -44 10 0 21 37 108 46 108 3 0 12 -16 20 -36z m625 -21
c27 -14 49 -30 49 -35 0 -4 7 -8 15 -8 8 0 40 -25 70 -55 52 -53 81 -110 65
-128 -11 -13 -58 20 -113 78 -26 27 -52 54 -57 58 -124 111 -136 149 -29 90z
m-196 -50 c10 -21 50 -84 87 -141 l68 -102 -1 -88 c0 -48 -4 -95 -8 -106 -7
-17 -8 -17 -24 -2 -9 10 -17 29 -17 44 0 15 -5 34 -10 42 -7 11 -10 8 -10 -16
0 -34 -19 -57 -36 -46 -18 12 -22 30 -39 157 -2 17 -4 45 -4 64 -1 55 -12 28
-25 -60 -12 -86 -26 -106 -46 -68 -18 33 -13 350 6 380 8 14 35 -11 59 -58z
m1643 22 l37 -36 -60 -52 c-90 -78 -291 -283 -312 -317 -21 -36 -48 -41 -38
-7 10 32 102 194 144 252 67 93 162 195 181 195 6 0 27 -16 48 -35z m-1790
-179 c2 -9 1 -25 -3 -34 -6 -16 -7 -16 -20 1 -15 20 -8 60 9 54 6 -2 13 -11
14 -21z m-68 -153 c66 -111 73 -128 72 -175 0 -26 -5 -55 -10 -64 -9 -17 -20
-8 -59 52 -11 17 -12 15 -7 -11 3 -16 14 -59 25 -95 14 -52 16 -74 8 -110 -16
-72 -40 -140 -50 -140 -5 0 -17 12 -26 27 -16 24 -18 54 -17 273 0 135 3 253
7 263 10 28 33 20 57 -20z m-656 -42 c68 -76 78 -87 91 -112 18 -33 29 -152
13 -147 -6 2 -38 58 -72 123 -34 66 -72 136 -84 155 -42 67 -17 58 52 -19z
m1147 -53 c55 -58 60 -94 12 -82 -28 8 -68 104 -43 104 5 0 19 -10 31 -22z
m-626 -116 c-7 -172 -13 -194 -38 -145 -16 29 -22 61 -32 164 -5 50 -3 58 20
83 21 22 29 26 40 16 11 -10 13 -34 10 -118z m1254 -61 c-23 -83 -45 -148 -50
-145 -15 9 -27 72 -22 111 9 68 100 228 111 195 2 -6 -16 -78 -39 -161z m1526
68 c-77 -38 -144 -68 -150 -68 -18 0 57 58 104 80 67 32 143 58 166 58 11 0
-43 -32 -120 -70z m-2399 -153 c7 -28 -21 -130 -41 -146 -15 -12 -39 13 -49
50 -11 40 -19 178 -11 197 5 15 13 11 50 -28 24 -26 47 -58 51 -73z m-620
-186 c4 -37 3 -52 -4 -45 -11 11 -33 127 -31 166 1 37 28 -55 35 -121z m4079
79 c177 -39 465 -160 546 -229 l34 -29 -30 8 c-36 10 -70 24 -128 50 -75 34
-339 129 -474 171 -73 22 -133 44 -133 47 0 8 121 -4 185 -18z m-3280 -29 c3
-5 2 -17 -3 -26 -8 -14 -10 -14 -21 0 -13 15 -8 36 9 36 5 0 12 -4 15 -10z
m-295 -85 c19 -101 -6 -186 -29 -97 -25 96 -29 150 -16 172 13 22 33 -11 45
-75z m222 -11 c30 -64 31 -101 3 -124 -11 -9 -23 1 -55 44 -39 51 -42 60 -36
97 4 23 12 51 18 62 10 20 11 20 25 1 9 -10 28 -47 45 -80z m-397 -67 c-2 -41
-22 -64 -40 -46 -12 12 -13 85 -2 114 8 19 9 19 27 -5 12 -16 17 -37 15 -63z
m-2332 58 c84 -15 157 -41 157 -56 0 -4 -8 -6 -17 -4 -154 30 -293 62 -301 69
-10 11 75 6 161 -9z m2912 -84 c28 -60 29 -87 1 -59 -24 24 -56 91 -56 117 0
35 20 14 55 -58z m1949 11 c3 -5 -32 -44 -77 -88 -46 -43 -112 -115 -148 -159
-35 -44 -70 -86 -77 -93 -11 -12 -21 -6 -65 37 -29 29 -81 66 -116 84 -35 18
-66 37 -68 43 -7 20 233 109 428 158 108 28 116 29 123 18z m-2694 -57 c-6
-15 -13 -26 -16 -23 -2 3 0 18 6 33 6 15 13 26 16 23 2 -3 0 -18 -6 -33z m485
-56 c2 -19 5 -41 6 -49 4 -32 -2 -50 -16 -50 -22 0 -57 39 -51 56 3 8 -1 17
-10 21 -19 7 -11 48 14 76 15 17 17 17 35 -1 10 -10 20 -34 22 -53z m205 -25
c52 -89 31 -101 -44 -25 -50 51 -63 94 -35 112 16 10 34 -10 79 -87z m-422 18
c-4 -31 -35 -53 -47 -33 -9 15 -4 49 12 69 15 19 39 -6 35 -36z m562 -44 c0
-6 -7 -5 -15 2 -8 7 -15 17 -15 22 0 6 7 5 15 -2 8 -7 15 -17 15 -22z m-229
-70 c49 -50 64 -84 48 -104 -17 -21 -43 -1 -67 50 -24 50 -37 96 -28 96 3 0
25 -19 47 -42z m-361 18 c0 -8 -4 -17 -9 -20 -10 -7 -23 19 -14 28 11 11 23 6
23 -8z m141 -43 c13 -35 15 -91 2 -104 -13 -13 -41 -2 -53 21 -10 18 3 72 23
98 13 17 16 16 28 -15z m1462 -100 c8 -16 22 -57 30 -93 27 -111 48 -203 53
-240 3 -19 13 -73 22 -120 10 -47 17 -105 17 -129 l0 -44 -140 -71 c-200 -101
-310 -179 -440 -311 -160 -162 -268 -338 -357 -577 -23 -65 -47 -118 -53 -118
-5 0 -20 16 -33 35 -19 30 -22 45 -18 107 3 55 -1 80 -13 103 -18 31 -19 47
-8 150 45 420 175 717 430 977 91 93 235 211 247 203 6 -4 3 -22 -6 -43 -9
-20 -27 -66 -40 -102 -27 -73 -22 -68 67 67 61 94 189 233 214 233 8 0 21 -12
28 -27z m-1321 -23 c62 -54 67 -77 21 -89 -58 -16 -93 14 -93 82 0 59 12 60
72 7z m231 -22 c12 -15 18 -30 15 -34 -9 -8 -78 39 -78 54 0 22 42 9 63 -20z
m-2150 -70 c98 -69 267 -196 277 -207 3 -4 37 -31 76 -63 81 -65 137 -118 130
-125 -3 -3 -56 24 -118 60 -212 122 -484 252 -735 353 -40 16 -73 32 -73 36 0
11 38 14 193 17 l149 2 101 -73z m1732 42 c-5 -8 -11 -8 -17 -2 -6 6 -7 16 -3
22 5 8 11 8 17 2 6 -6 7 -16 3 -22z m1830 -106 c25 -102 41 -213 39 -264 -2
-81 -4 -90 -13 -90 -12 0 -19 35 -26 139 -4 47 -9 94 -11 105 -16 80 -34 194
-34 211 1 35 27 -23 45 -101z m848 84 c24 -19 11 -32 -79 -76 -175 -88 -183
-55 -12 51 70 42 68 41 91 25z m-4977 -28 c212 -55 569 -205 767 -323 43 -26
81 -47 83 -47 2 0 22 -12 43 -27 21 -16 48 -35 60 -43 44 -30 18 -28 -76 6
-322 118 -605 195 -913 249 -19 3 -165 8 -323 10 -159 2 -291 6 -294 9 -7 6
188 100 264 128 78 27 223 67 250 67 12 1 74 -13 139 -29z m-936 16 c0 -2 -53
-43 -117 -92 -140 -106 -234 -185 -366 -306 -154 -143 -181 -158 -115 -67 83
115 257 282 368 354 110 72 230 130 230 111z m1831 -10 c30 -7 65 -19 77 -25
29 -15 144 -150 253 -295 138 -183 120 -179 -85 21 -72 70 -173 166 -224 211
-83 76 -106 103 -84 102 4 -1 32 -7 63 -14z m1482 -22 c-5 -14 -33 -27 -41
-20 -2 3 3 17 13 32 13 20 19 23 25 14 5 -7 6 -19 3 -26z m2891 -70 c9 -3 16
-15 16 -25 0 -14 -7 -19 -29 -19 -33 0 -46 13 -37 35 6 16 24 19 50 9z m-2651
-81 c100 -66 167 -122 167 -140 0 -44 -284 41 -303 92 -6 14 42 95 56 95 5 0
41 -21 80 -47z m-1221 20 c33 -10 167 -301 155 -336 -4 -13 -12 -1 -133 203
-76 129 -87 158 -56 145 9 -4 25 -9 34 -12z m998 -3 c0 -5 -4 -10 -10 -10 -5
0 -10 5 -10 10 0 6 5 10 10 10 6 0 10 -4 10 -10z m2450 -40 c0 -5 -4 -10 -10
-10 -5 0 -10 5 -10 10 0 6 5 10 10 10 6 0 10 -4 10 -10z m-2562 -36 c-2 -9
-18 -22 -35 -29 -28 -12 -33 -12 -33 0 0 16 38 45 58 45 7 0 12 -7 10 -16z
m3002 6 c0 -12 -28 -25 -36 -17 -9 9 6 27 22 27 8 0 14 -5 14 -10z m-3649 -41
c67 -36 77 -57 79 -159 3 -139 0 -204 -9 -194 -9 9 -124 301 -141 357 -11 35
-2 35 71 -4z m3449 11 c0 -5 -4 -10 -10 -10 -5 0 -10 5 -10 10 0 6 5 10 10 10
6 0 10 -4 10 -10z m-2650 -49 c21 -40 116 -428 107 -437 -2 -2 -15 26 -30 63
-75 195 -124 364 -112 383 10 16 23 12 35 -9z m215 -102 l127 -61 -6 -162 c-7
-171 -14 -265 -22 -277 -4 -7 -26 -4 -80 12 -36 11 -31 -3 -98 279 -46 193
-61 270 -53 270 2 0 62 -28 132 -61z m-243 -157 c32 -95 60 -195 64 -222 6
-43 4 -50 -12 -55 -11 -3 -32 -13 -47 -21 -16 -8 -33 -12 -37 -9 -9 6 -182
308 -193 337 -9 26 128 151 158 144 6 -1 36 -80 67 -174z m-524 129 l43 -37
-40 -108 c-21 -59 -42 -110 -45 -113 -15 -15 -20 16 -24 127 -4 116 1 170 16
170 4 -1 26 -18 50 -39z m4016 -51 c38 -37 31 -64 -13 -49 -43 15 -82 54 -75
74 9 23 52 11 88 -25z m-3004 -25 c11 -13 6 -48 -24 -199 -20 -100 -36 -187
-36 -192 0 -5 -5 -2 -10 6 -5 8 -7 55 -4 105 9 183 14 260 20 278 7 21 37 22
54 2z m-787 -142 c82 -98 160 -208 231 -326 35 -58 51 -99 61 -152 8 -41 24
-100 36 -132 11 -32 29 -87 39 -123 10 -36 25 -85 34 -109 19 -50 20 -61 6
-61 -10 0 -38 36 -150 195 -35 50 -66 92 -70 95 -3 3 -30 37 -61 75 -31 39
-93 108 -137 155 -142 152 -154 169 -148 209 22 147 55 261 76 261 5 0 42 -39
83 -87z m3852 -36 c22 -11 43 -25 47 -31 10 -14 10 -66 1 -66 -7 0 -110 76
-131 97 -7 7 -10 18 -7 23 8 12 33 6 90 -23z m-10 -187 c80 -46 105 -73 105
-115 0 -32 -2 -35 -19 -26 -34 19 -163 150 -156 161 9 14 12 13 70 -20z m88
-320 c20 -16 24 -27 21 -48 -9 -48 -22 -46 -48 6 -14 28 -26 54 -26 57 0 12
29 4 53 -15z"/>
</g>
</svg>
