<?xml version="1.0" encoding="iso-8859-1"?>
<!-- Generator: Adobe Illustrator 17.1.0, SVG Export Plug-In . SVG Version: 6.00 Build 0)  -->
<!DOCTYPE svg PUBLIC "-//W3C//DTD SVG 1.1//EN" "http://www.w3.org/Graphics/SVG/1.1/DTD/svg11.dtd">
<svg version="1.1" id="Capa_1" xmlns="http://www.w3.org/2000/svg" xmlns:xlink="http://www.w3.org/1999/xlink" x="0px" y="0px"
	 viewBox="0 0 213.383 213.383" style="enable-background:new 0 0 213.383 213.383;" xml:space="preserve">
<path d="M143.463,213.383c-2.039,0-4.08-0.382-6.035-1.147l-3.415-1.337c-4.114-1.611-7.355-4.728-9.126-8.776
	c-0.852-1.947-1.314-3.998-1.385-6.061c-5.446,1.829-11.128,2.754-16.948,2.754s-11.503-0.925-16.949-2.754
	c-0.071,2.062-0.533,4.113-1.385,6.061c-1.771,4.049-5.012,7.165-9.126,8.776l-3.414,1.337c-4.115,1.611-8.61,1.522-12.659-0.248
	c-4.048-1.771-7.165-5.012-8.776-9.127l-6.497-16.596c-3.292-8.411,0.8-17.922,9.127-21.336c-0.244-0.62-0.476-1.244-0.696-1.871
	c-2.438,1.501-6.122,3.132-10.271,2.764c-4.302-0.373-8.095-2.733-11.275-7.017c-7.001-9.43-3.306-26.41,8.237-37.852
	c6.641-6.582,17.073-10.871,23.031-12.931C54.35,97.955,47.124,83.66,47.124,67.83c0-7.299,1.503-14.357,4.472-21.021
	c-8.122-4.271-13.239-12.631-13.239-21.968C38.357,11.144,49.501,0,63.198,0C73.57,0,82.753,6.431,86.394,15.937
	c6.455-2.162,13.224-3.257,20.16-3.257s13.705,1.095,20.159,3.257C130.354,6.431,139.537,0,149.909,0
	c13.697,0,24.841,11.144,24.841,24.841c0,9.337-5.117,17.698-13.239,21.968c2.969,6.665,4.472,13.724,4.472,21.021
	c0,15.795-7.193,30.061-18.698,40.124c5.922,2.033,16.513,6.344,23.228,12.999c11.544,11.441,15.239,28.421,8.237,37.852
	c-3.18,4.283-6.973,6.644-11.275,7.017c-4.288,0.37-8.063-1.367-10.497-2.904c-0.235,0.675-0.483,1.345-0.746,2.012
	c8.328,3.413,12.42,12.925,9.127,21.336l-6.497,16.596c-1.611,4.115-4.728,7.356-8.776,9.127
	C147.962,212.917,145.714,213.383,143.463,213.383z M128.628,193.76c-0.33,2.138-0.048,4.329,0.84,6.359
	c1.235,2.824,3.497,4.999,6.368,6.123l3.415,1.337c2.87,1.124,6.007,1.063,8.832-0.173c2.825-1.235,5-3.497,6.124-6.368
	l6.497-16.596c2.32-5.927-0.614-12.636-6.541-14.956l-3.031-1.187c-6.276-1.755-12.832,1.231-15.625,7.118l-5.844,14.928
	c-0.211,0.686-0.371,1.409-0.477,2.159C129.12,192.975,128.923,193.407,128.628,193.76z M61.977,168.299l-3.032,1.188
	c-5.927,2.32-8.86,9.029-6.541,14.956l6.497,16.596c1.124,2.871,3.298,5.133,6.124,6.368c2.824,1.235,5.96,1.297,8.833,0.173
	l3.414-1.337c2.871-1.124,5.132-3.299,6.368-6.123c0.888-2.03,1.169-4.222,0.84-6.359c-0.295-0.353-0.492-0.785-0.558-1.255
	c-0.106-0.75-0.266-1.473-0.477-2.158L77.6,175.418C74.807,169.533,68.253,166.549,61.977,168.299z M88.82,190.453
	c5.648,2.231,11.606,3.362,17.734,3.362s12.086-1.131,17.734-3.362c0.106-0.332,0.224-0.662,0.352-0.989l0.307-0.783
	c0.111-0.345,0.231-0.685,0.361-1.017l5.161-13.182c0.139-0.354,0.287-0.702,0.444-1.043l0.224-0.572l0,0
	c1.611-4.115,4.728-7.355,8.776-9.126c3.72-1.628,7.819-1.835,11.652-0.605c2.223-5.637,3.348-11.573,3.348-17.679
	c0-12.466-4.669-24.168-13.191-33.179c-2.901,1.983-5.951,3.702-9.124,5.146c5.961,6.493,9.316,15.01,9.316,23.904
	c0,19.497-15.862,35.359-35.36,35.359s-35.36-15.862-35.36-35.359c0-8.895,3.355-17.411,9.316-23.904
	c-3.173-1.443-6.223-3.162-9.125-5.146c-8.522,9.011-13.191,20.713-13.191,33.179c0,4.33,0.565,8.574,1.687,12.687
	c0.035,0.102,0.064,0.205,0.085,0.31c0.443,1.581,0.968,3.144,1.575,4.683c3.835-1.227,7.933-1.022,11.652,0.605
	c4.049,1.771,7.166,5.011,8.776,9.126l0.224,0.572c0.157,0.341,0.306,0.688,0.444,1.043l5.161,13.182
	c0.13,0.332,0.25,0.671,0.361,1.017l0.307,0.783C88.596,189.791,88.713,190.121,88.82,190.453z M85.526,119.442
	c-5.949,5.717-9.332,13.611-9.332,21.886c0,16.74,13.62,30.359,30.36,30.359c16.741,0,30.36-13.619,30.36-30.359
	c0-8.274-3.384-16.169-9.332-21.886c-6.596,2.32-13.63,3.521-20.89,3.537c-0.013-0.005-0.024,0-0.035,0c-0.004,0-0.012,0-0.016,0
	c-0.013,0-0.028,0-0.041,0c-0.004,0.001-0.007,0-0.012,0c-0.024,0-0.045,0-0.069,0c-0.004,0-0.008,0.001-0.012,0
	c-0.012,0-0.029,0-0.041,0c-0.004,0-0.012,0-0.016,0c-0.01,0.001-0.01,0.011-0.035,0C99.156,122.964,92.122,121.763,85.526,119.442z
	 M158.458,157.865c1.544,1.167,4.928,3.305,8.613,2.973c2.803-0.253,5.382-1.939,7.665-5.014c4.884-6.579,2.939-20.733-7.742-31.32
	c-4.661-4.619-11.679-8.063-17.151-10.255c6.543,9.021,10.07,19.826,10.07,31.208C159.913,149.678,159.425,153.826,158.458,157.865z
	 M63.148,114.411c-5.416,2.2-12.216,5.591-16.759,10.093c-10.681,10.587-12.626,24.742-7.742,31.32
	c2.29,3.084,4.878,4.771,7.693,5.016c3.489,0.304,6.719-1.617,8.351-2.804c-0.994-4.093-1.496-8.298-1.496-12.579
	C53.195,134.143,56.679,123.4,63.148,114.411z M106.514,117.979c0.026,0,0.054,0,0.08,0l0,0c0.013,0.002,0.027,0,0.039,0
	c0.004-0.001,0.006,0,0.01,0c0.014,0,0.025,0,0.041,0c0.015,0.001,0.03,0.001,0.045,0c0.008,0,0.016,0,0.023,0
	c29.922-0.099,54.231-22.558,54.231-50.149c0-7.367-1.698-14.468-5.045-21.105c-0.316-0.626-0.354-1.356-0.106-2.012
	c0.249-0.656,0.761-1.177,1.413-1.437c7.597-3.026,12.505-10.263,12.505-18.436C169.75,13.9,160.85,5,149.909,5
	c-9.017,0-16.909,6.084-19.192,14.794c-0.18,0.688-0.644,1.266-1.276,1.59c-0.632,0.325-1.373,0.365-2.036,0.111
	c-6.62-2.531-13.636-3.815-20.852-3.815s-14.232,1.284-20.852,3.815c-0.663,0.254-1.404,0.214-2.035-0.111
	c-0.632-0.324-1.096-0.902-1.276-1.59C80.107,11.084,72.214,5,63.198,5c-10.94,0-19.841,8.9-19.841,19.841
	c0,8.172,4.909,15.408,12.506,18.436c0.651,0.26,1.164,0.78,1.413,1.437c0.249,0.655,0.21,1.386-0.106,2.012
	c-3.348,6.637-5.045,13.737-5.045,21.105c0,27.592,24.309,50.051,54.231,50.149c0.013,0,0.026,0,0.04,0
	c0.014-0.001,0.026-0.001,0.039,0c0.012,0,0.022-0.001,0.037,0c0.012,0.002,0.022,0.001,0.034,0
	C106.507,117.979,106.511,117.979,106.514,117.979L106.514,117.979z M106.554,114.519c-18.952,0-34.371-12.405-34.371-27.653
	s15.419-27.653,34.371-27.653s34.371,12.405,34.371,27.653c0,12.068-9.658,22.355-23.082,26.121c-0.343,0.184-0.72,0.28-1.099,0.292
	C113.523,114.084,110.1,114.519,106.554,114.519z M101.563,109.191c3.245,0.429,6.735,0.429,9.981,0l-4.99-4.99L101.563,109.191z
	 M109.054,99.631l8.302,8.301c10.867-3.326,18.569-11.515,18.569-21.066c0-12.491-13.176-22.653-29.371-22.653
	S77.183,74.374,77.183,86.865c0,9.551,7.704,17.74,18.569,21.066l8.302-8.301V88.688c-4.623-0.926-8.064-4.358-8.064-8.44
	c0-4.79,4.739-8.687,10.564-8.687s10.564,3.896,10.564,8.687c0,4.082-3.442,7.515-8.064,8.44V99.631z M106.554,76.561
	c-3.016,0-5.564,1.688-5.564,3.687s2.548,3.687,5.564,3.687s5.564-1.688,5.564-3.687S109.57,76.561,106.554,76.561z M128.15,58.395
	c-4.566,0-8.28-3.715-8.28-8.28s3.714-8.28,8.28-8.28s8.281,3.715,8.281,8.28S132.716,58.395,128.15,58.395z M128.15,46.834
	c-1.809,0-3.28,1.472-3.28,3.28s1.472,3.28,3.28,3.28c1.809,0,3.281-1.472,3.281-3.28S129.959,46.834,128.15,46.834z M84.958,58.395
	c-4.566,0-8.281-3.715-8.281-8.28s3.715-8.28,8.281-8.28s8.28,3.715,8.28,8.28S89.524,58.395,84.958,58.395z M84.958,46.834
	c-1.809,0-3.281,1.472-3.281,3.28s1.472,3.28,3.281,3.28c1.809,0,3.28-1.472,3.28-3.28S86.766,46.834,84.958,46.834z
	 M153.924,41.175c-0.762,0-1.499-0.35-1.979-0.974c-4.426-5.738-10.438-10.646-17.388-14.192c-0.895-0.457-1.43-1.405-1.356-2.408
	c0.639-8.766,8.029-15.633,16.824-15.633c9.304,0,16.873,7.569,16.873,16.873c0,7.525-5.056,14.203-12.296,16.24
	C154.378,41.145,154.15,41.175,153.924,41.175z M138.409,22.391c6.372,3.493,11.973,8.06,16.356,13.336
	c4.268-1.863,7.132-6.135,7.132-10.886c0-6.547-5.326-11.873-11.873-11.873C144.373,12.968,139.547,16.996,138.409,22.391z
	 M58.726,40.936c-0.271,0-0.544-0.044-0.811-0.136c-6.816-2.338-11.396-8.752-11.396-15.959c0-9.304,7.569-16.873,16.874-16.873
	c8.663,0,15.876,6.489,16.779,15.096c0.109,1.044-0.445,2.046-1.388,2.507c-7.232,3.535-13.486,8.517-18.087,14.404
	C60.213,40.593,59.481,40.936,58.726,40.936z M63.392,12.968c-6.547,0-11.874,5.326-11.874,11.873c0,4.496,2.533,8.554,6.451,10.563
	c4.542-5.378,10.341-9.99,16.938-13.473C73.607,16.72,68.919,12.968,63.392,12.968z"/>
<g>
</g>
<g>
</g>
<g>
</g>
<g>
</g>
<g>
</g>
<g>
</g>
<g>
</g>
<g>
</g>
<g>
</g>
<g>
</g>
<g>
</g>
<g>
</g>
<g>
</g>
<g>
</g>
<g>
</g>
</svg>
